<?xml version="1.0" encoding="UTF-8"?>
<svg id="_レイヤー_1" xmlns="http://www.w3.org/2000/svg" version="1.1" viewBox="0 0 122.56 142.29">
  <!-- Generator: Adobe Illustrator 29.7.1, SVG Export Plug-In . SVG Version: 2.1.1 Build 8)  -->
  <defs>
    <style>
      .st0 {
        fill: #fff;
      }

      .st1 {
        fill: #254624;
      }

      .st2 {
        display: none;
      }
    </style>
  </defs>
  <g id="_着彩_x3000_人_xFF08_白_xFF09_" class="st2">
    <polyline class="st0" points="-166.62 105.16 -166.31 107.1 -164.24 107.67 -162.71 106.97 -161.62 106.42 -161.62 104.79 -167 105.35"/>
    <polygon class="st0" points="-149.93 105.98 -151.18 107.41 -151.5 109.16 -151.18 109.91 -149.18 110.24 -148.31 109.29 -148 107.41 -149.93 105.98"/>
    <polygon class="st0" points="-152.04 126.29 -149.75 126.66 -150.56 130.66 -151.18 129.91 -152.04 126.29"/>
    <polygon class="st0" points="-148.62 126.79 -147.31 126.79 -146.93 129.48 -148 129.48 -148.62 126.79"/>
    <polygon class="st0" points="-29.02 125.85 -28.6 124.14 -27.68 123.81 -27.02 123.81 -26.68 125.48 -28.14 126.02 -29.02 125.85"/>
    <polygon class="st0" points="-19.68 103.78 -20.18 105.56 -19.68 106.48 -18.39 106.73 -16.97 104.58 -19.68 103.78"/>
    <polygon class="st0" points="56.25 115.86 56.57 117.74 57.38 118.54 59.37 119.23 60.32 118.48 60.69 115.39 56.25 115.86"/>
    <polygon class="st0" points="70.88 114.55 69.57 116.57 69.57 117.44 70.88 118.16 72.6 118.41 73.57 117.74 73.94 115.86 70.88 114.55"/>
    <polygon class="st0" points="66.02 121.54 65.72 122.55 66.75 123.1 67.82 121.54 67.07 121.54 66.02 121.54"/>
    <polygon class="st0" points="140.29 106.57 140.29 108.6 140.91 108.79 141.94 108.79 142.63 108.29 142.63 106.85 140.29 106.57"/>
    <polygon class="st0" points="149.6 106.85 149.16 109.04 149.6 109.45 150.41 109.45 151.35 107.95 149.6 106.85"/>
    <polygon class="st0" points="206.91 104.01 205.88 104.48 206.39 105.95 207.75 105.29 206.91 104.01"/>
    <polygon class="st0" points="60.43 19.52 63.19 19.87 62.36 22.52 61.2 22.2 60.43 19.52"/>
    <polygon class="st0" points="56.44 22.02 57.78 22.02 58.64 24.21 59.46 23.15 59.92 22.69 60.69 22.7 61.81 23.51 63.19 22.77 64.28 23.11 65.03 24.21 65.14 25.21 65.14 27.1 64.72 27.33 58.86 27.52 58.69 25.21 57.44 25.6 56.44 24.77 56.44 23.15 56.44 22.02"/>
    <polygon class="st0" points="-167 108.39 -163.53 113.02 -164.31 115.14 -160.52 117.89 -161.56 119.15 -165.34 115.55 -166.14 119.87 -171.81 119.87 -171.06 112.98 -169.68 110.42 -167 108.39"/>
    <polygon class="st0" points="-170.68 119.87 -167.65 120.98 -168.15 130.66 -170.25 130.66 -170.68 119.87"/>
    <polyline class="st0" points="-150.01 111.13 -153.43 115.52 -151.1 115.91 -153.43 125.7 -146.93 125.7 -147.53 116.75 -144.56 119.35 -144.24 118.82 -148.23 110.89 -150.43 111.03"/>
    <polyline class="st0" points="-144.8 123.4 -145.08 125.69 -143.31 126.98 -141.26 126.24 -140.68 122.35 -145.3 122.63"/>
    <polygon class="st0" points="-75.62 106.05 -80.93 106.05 -80.93 108.39 -78.28 110.55 -75.53 112.01 -72.88 111.68 -71.06 111.39 -69.56 109.34 -69.56 106.05 -73.78 109.61 -75.62 106.05"/>
    <polygon class="st0" points="-75.54 103.78 -75.14 102.65 -72.59 107.86 -74.06 108.01 -75.54 103.78"/>
    <polygon class="st0" points="-77.68 112.01 -75.95 112.92 -72.9 113.46 -71.96 121.36 -78.93 121.36 -77.68 112.01"/>
    <polyline class="st0" points="-29 126.91 -26.06 126.02 -26.06 131.6 -29 131.6 -29.02 126.6"/>
    <path class="st0" d="M-19.68,117.35c.46.24,8.84-2.43,8.84-2.43v3.01l-.99,2.65-1.84,1.65-3.56-.29-2.03-1.04-.42-3.55Z"/>
    <polygon class="st0" points="-20.91 108.01 -18.58 107.52 -16.97 108.9 -15.26 110.13 -15.26 115.43 -20.18 117.35 -20.02 120.13 -18.35 121.36 -16.99 122.96 -16.97 124.52 -20.91 124.52 -20.91 113.85 -20.91 108.01"/>
    <polygon class="st0" points="57.89 119.92 60.32 122.32 61.25 120.41 62.82 122.04 63.82 123.85 63.82 126.79 63.57 128.03 59.88 127.27 58.06 127.56 56.25 128.03 56.43 123.98 57.63 120.79 57.89 119.92"/>
    <polygon class="st0" points="56.25 128.03 59.08 127.4 60.61 127.59 62.51 127.72 63.82 129.48 64.19 131.41 64.19 133.91 63.25 134.35 62.51 131.79 62.5 128.79 58.47 128.43 57.09 129.88 56.25 132.04 55.5 134.85 54.1 134.6 54.1 132.1 54.69 129.79 56.25 128.03"/>
    <polygon class="st0" points="70.5 128.03 74.82 128.35 76.44 129.48 77.5 131.13 77 134.1 76 134.85 75.82 130.79 73.5 129.6 71.25 129.79 70.5 130.48 70.13 134.85 67.82 134.85 68.07 131.44 68.88 129.66 69.19 128.79 70.5 128.03"/>
    <polygon class="st0" points="75.13 119.23 71.25 119.23 70 121.54 69.57 122.66 67.82 121.79 66.75 123.1 70.56 125.66 70.54 127.69 74.82 128.35 76.51 126.57 77.97 122.68 76.47 120.12 75.13 119.23"/>
    <polygon class="st0" points="58.47 119.23 60.24 119.9 61.13 119.92 59.88 122.04 58.16 120.19 58.47 119.23"/>
    <polyline class="st0" points="56.25 121.54 57.16 122.04 56.71 123.98 54.75 127.27 53.85 126.66 56.25 121.79"/>
    <polygon class="st0" points="139.63 109.79 143.07 109.45 143.69 115.86 143 120.41 138.13 120.79 137.88 116.65 139.63 109.79"/>
    <path class="st0" d="M151.35,116.56l5.28-1.45.87,2.25s-.05,3.47-.5,3.42-2.58,1.15-2.58,1.15c0,0-1.1-.1-1.38-.39-.27-.29-1.48-1.94-1.7-2.19s0-2.79,0-2.79h.01Z"/>
    <path class="st0" d="M149.16,120.04h1.72l3.5,3,.44,2-1.78,1.23s-2.16.04-2.79,0c-.62-.04-2.34-1.1-2.34-1.1l1.25-5.12h0Z"/>
    <path class="st0" d="M205.68,107.47l3.07.32,3.19,5.44-1.06,3.17h-1.98l.48,3.26s-1.81.19-2,0-1.7-.81-1.7-.81v-11.38h0Z"/>
    <polygon class="st0" points="206.44 119.75 209.44 120.85 209.44 123.6 208.81 126.48 209.51 130.54 209.51 131.29 207.98 131.29 206.82 132.4 205.68 131.54 204.69 125.79 206.44 119.75"/>
    <path class="st0" d="M188.94,122.98"/>
    <polygon class="st0" points="193.25 130.91 194.82 130.48 195.44 132.1 197.19 133.29 200.13 133.29 200.63 135.1 197.75 135.1 195.19 135.1 194.69 132.79 192.63 132.4 193.25 130.91"/>
    <polygon class="st0" points="-170.31 130.98 -170.31 132.1 -167.81 132.58 -166.75 131.74 -166.17 132.23 -165.75 130.66 -166.51 130.3 -167.37 131.04 -170.31 130.98"/>
    <polygon class="st0" points="-165.75 108.11 -163.56 108.66 -163.56 111.36 -164.65 110.8 -165.75 109.48 -165.75 108.11"/>
    <polygon class="st0" points="-131.47 125.7 -130.71 126.1 -129.97 126.35 -128.12 128.13 -130.48 128.13 -130.71 130.35 -132.06 130.91 -133.78 130.91 -134.42 132.29 -136.09 132.29 -136.68 130.41 -135.7 128.6 -134.06 127.91 -133.12 128.13 -132.4 127.23 -131.47 125.7"/>
  </g>
  <g>
    <path class="st1" d="M-43.63,15.2c-1.81.1-3.89.33-6.27.69.03,1.42.09,3.7.24,6.87.15,2.97.24,5.25.24,6.86,0,1.39-.03,2.71-.12,3.93l-1.66.86-3.18-2.41,1.16-1.95,1.63,1.25c.06-2.54-.03-6.37-.3-11.45-2.23,3.23-5.4,6.57-9.59,10.03l-1.25-1.85c5.17-4.29,8.64-8.22,10.42-11.75l-3.77.69c-3.3.63-5.34.92-6.15.89l.06-2.34c.65.03,2.55-.26,5.73-.86,1.9-.36,3.36-.63,4.39-.79,0-3.33-.21-5.48-.62-6.4l1.87-1.09c.56,1.25.86,3.63.86,7.16,2.35-.36,4.39-.59,6.18-.69l.12,2.34Z"/>
    <path class="st1" d="M-42.74,45.76c-2.23,2.81-5.11,5.51-8.61,8.12-1.34,4.46-3.09,8.85-5.29,13.14l-1.93-1.22c2.05-3.93,3.71-8.05,5.02-12.38l-1.1-1.52,1.69-1.55.89,1.19c2.11-1.62,4.13-3.4,6-5.41-1.54.1-4.22.5-7.99,1.12-3.83.66-6.32.99-7.48.99-.65,0-1.16-.07-1.51-.17l.59-2.31c.21.07.48.1.86.1,1.04,0,3.44-.33,7.22-.96,4.66-.83,7.81-1.22,9.38-1.22.62,0,1.16.03,1.6.1l.65,1.98Z"/>
    <path class="st1" d="M-56.99,86.94l-2.38-1.52c-1.34-.86-2.11-1.32-2.38-1.35v-2.34c.5,0,1.51.46,2.97,1.35.92.63,1.87,1.22,2.82,1.81l-1.04,2.05ZM-42.44,85.59c-5.55,4.98-11.13,9.31-16.69,13.04l-1.51-2.64,1.81-1.32.39.69c4.99-3.47,9.89-7.36,14.67-11.65l1.34,1.88ZM-52.54,78.16l-1.25,1.88-5.17-4.26,1.28-1.88,5.14,4.26Z"/>
    <path class="st1" d="M-43.3,129.42c-3.06-2.94-6.3-5.58-9.71-7.95-2.41,2.97-5.02,5.71-7.87,8.19l-1.34-1.88c5.52-4.85,10.01-10.33,13.45-16.44-2.76.53-5.05.92-6.86,1.19-2.35.36-4.04.5-5.08.43l.12-2.38c1.01.07,2.88-.13,5.58-.56,2.17-.33,4.87-.83,8.11-1.49l1.16,1.72c-1.22,2.74-3.18,5.88-5.85,9.41,3.39,2.38,6.62,5.02,9.68,7.95l-1.4,1.82Z"/>
    <path class="st1" d="M-80.8,34.61h-26.01v-2.24h8.85V15.53h-7.87v-2.21h13.69l5.17-7,1.72,1.42-4.22,5.58h7.78v2.21h-7.75v16.83h8.64v2.24ZM-99.45,28.2l-1.96.92-3.68-9.67,1.93-.92,3.71,9.67ZM-96.3,11.8l-1.63,1.42-4.28-5.61,1.63-1.42,4.28,5.61ZM-91.61,32.36V15.53h-4.22v16.83h4.22ZM-82.25,19.43l-4.01,10-1.93-.89,4.01-10,1.93.89Z"/>
    <path class="st1" d="M-81.78,64.27c-4.13-3.47-7.75-7.85-10.93-13.17v18.12h-2.38v-18.09c-3.24,5.25-6.83,9.7-10.81,13.43l-1.51-2.01c4.31-4.03,8.14-8.91,11.43-14.69h-11.05v-2.48h11.88v-6.11h2.49v6.11h12.14v2.48h-11.28c3.15,5.78,6.95,10.56,11.4,14.29l-1.4,2.11Z"/>
    <path class="st1" d="M-80.29,101.07h-15.47c-2.76,0-4.93-1.06-6.44-3.14l-3.98,3.83-1.37-1.75,4.39-4.19v-8.25h-3.95v-2.31h6.03v10.53c1.07,2.05,2.82,3.07,5.31,3.07h15.47v2.21ZM-100.34,79.39l-1.72,1.39-4.72-6.93,1.72-1.39,4.72,6.93ZM-81.81,96.15l-1.07,1.12h-3.15v-2.14h2.14v-3.07h-5.34v4.92h-2.05v-4.92h-5.17v5.15h-2.08v-16.67h7.01l-3.53-2.54,1.07-1.78,2.94,2.15,4.42-3.17h-11.73v-2.14h14.97l.59,1.98-6.5,4.62,1.25.89h6.24v15.61ZM-91.28,85.46v-2.81h-5.17v2.81h5.17ZM-91.28,90.05v-2.64h-5.17v2.64h5.17ZM-83.89,85.46v-2.81h-5.34v2.81h5.34ZM-83.89,90.05v-2.64h-5.34v2.64h5.34Z"/>
    <path class="st1" d="M-96.36,119.28l-1.01,3.33-2.05-.23c-.12-1.39-.18-2.84-.18-4.36,0-1.85.09-3.89.3-6.17.15-1.52.24-2.54.24-3.07,0-.59-.06-1.12-.15-1.58l2.05-.5c.15.63.21,1.29.21,2.05,0,.63-.09,1.72-.24,3.33-.21,2.31-.33,4.26-.33,5.88v.92l1.16.4ZM-88.37,107.67l-.03,10.03c0,4.59-.89,8.61-2.7,12.08-.48.89-1.28,2.25-2.44,3.99l-1.72-1.39c1.81-2.74,3.03-5.02,3.65-6.83.74-2.14,1.1-4.79,1.1-7.85l.03-10.03h2.11Z"/>
    <path class="st1" d="M-121.35,11.31h-6.92l1.31,1.06-2.49,3.47h6.8v18.68l-1.19,1.25h-3.06v-2.34h2.14v-15.35h-6.86v3.14h4.07v-1.49h2.02v2.54l-1.01,1.12h-5.23c-1.28,0-1.9-.73-1.9-2.18v-3.14h-2.94c-1.01,3.17-3.74,5.78-6.44,7.06l-.8-2.05c2.29-1.16,3.98-2.81,5.02-5.02h-5.94v17.66h-2.17V15.83h7.22l-2.29-3.47,1.28-1.06h-7.33v-2.21h12.38v-3.07h2.29v3.07h12.06v2.21ZM-128.92,33.65h-9.59v1.45h-2.05v-10.03h11.64v8.58ZM-129.01,11.31h-11.13l2.2,3.37-1.43,1.16h7.25l3.12-4.52ZM-130.94,31.44v-4.16h-7.57v4.16h7.57Z"/>
    <path class="st1" d="M-121.65,44.83h-22.51v8.25c0,4.85-.8,10.83-2.52,15.28l-1.99-.92c1.6-4.06,2.32-9.93,2.32-14.36v-10.59h11.22v-3.5h2.23v3.5h11.25v2.34ZM-122.36,52.23h-10.36v4.49h8.43v12.15h-2.26v-1.62h-13.24v1.75h-2.26v-12.28h7.1v-10.59h2.23v3.8h10.36v2.31ZM-126.55,64.97v-6.04h-13.24v6.04h13.24Z"/>
    <path class="st1" d="M-140.71,81.7c-.65,1.02-1.48,2.41-2.52,3.86v16.4h-2.08v-13.73c-.8,1.06-1.63,2.05-2.43,3l-1.46-1.55c2.64-3.07,4.93-6.14,6.86-9.27l1.63,1.29ZM-140.74,73.21c-1.75,2.51-3.83,4.92-6.27,7.2l-1.34-1.68c2.35-2.34,4.07-4.39,5.94-7.03l1.66,1.52ZM-128.75,98.79l-12.5,2.64-.36-2.21,5.7-1.19v-5.41h-5.14v-2.24h5.14v-3.76h2.11v3.76h4.39v2.24h-4.39v4.95l4.66-.99.39,2.21ZM-129.16,85.26h-11.73v-2.24h4.99v-4.72h-4.57v-2.24h4.57v-3.93h2.11v3.93h4.36v2.24h-4.36v4.72h4.63v2.24ZM-120.85,85.16h-2.29v15.18l-1.04,1.19h-3.47v-2.24h2.41v-14.13h-3.42v-2.24h7.81v2.24ZM-121.68,75.85h-6.71v-2.24h6.71v2.24Z"/>
  </g>
  <g>
    <path class="st1" d="M98.32,18.04c-.37-.68-.06-1.13.78-.94,1.14.26,2.09,1.15,2.09,1.76,0,.58-.23,1.1-.99,2.07-2.09,2.68-5.52,6.56-10.85,9.05-.9.43-1.33-.67-.64-1.12,5.36-3.49,8.63-7.82,9.48-9.29.42-.72.42-1,.14-1.53h0ZM100.07,28.13c.49.08,1.36.24,1.93.24s.83-.16.83-.83c0-1.47-.16-8.22-.19-11.34-2.7.38-5.76,1.13-7.42,1.56-1.09.28-1.88.61-2.68.61-1.16,0-2.49-1.71-2.65-3.23-.06-.58.41-.79.81-.52.81.55,1.6.97,2.41.97,1.35,0,6.01-.69,9.52-1.21.01-1.48.04-3.12-.04-3.96-.05-.6-.25-.82-.93-1.11-.75-.32-1.09-.54-1.09-.83,0-.54.93-.96,1.73-.96,1.23,0,3.05.61,3.05,1.44,0,1.06-.56,1.88-.78,5.14.34-.05.65-.09.92-.13,1.44-.19,2.21-.63,2.73-.63,1.34,0,3.04.93,3.04,1.96,0,.72-.4,1-1.05,1-.74,0-2.73-.36-4.33-.36-.47,0-.94.02-1.38.05-.07,3.04.04,7.19.14,9.42.07,1.44.32,2.89.32,3.79,0,1.39-1.29,2.87-2.31,2.87-.87,0-.78-1.33-2.97-2.99-.49-.37-.3-1.07.38-.96h0Z"/>
    <path class="st1" d="M90.22,41.4c0-.58.52-.74.87-.48.78.57,1.24.87,2.21.87,2.38,0,10.21-1.16,11.75-1.43,1.31-.23,1.95-.7,2.68-.7,1.07,0,3.17,1.83,3.17,2.88,0,.75-1.54,1.41-2.41,1.99-1.03.68-3.45,2.37-5.72,3.78-.07.18-.15.37-.23.58-2.11,6.02-5.95,11.41-10.62,14.19h0c-.81.48-1.33-.5-.65-1.09,4.88-4.24,8.37-10.47,8.83-13.62.2-1.34-1.13-1.53-1.13-2.1,0-.51.7-.87,1.37-.87.99,0,2.13.7,2.58,1.25,1.58-1.34,3-2.81,3.59-3.58.49-.65.47-1.13-.2-1.13s-6.2,1.13-9.34,1.97c-1.85.49-3.22,1.07-3.92,1.07s-1.95-1.01-2.49-2.14c-.25-.51-.33-.91-.33-1.42h0Z"/>
    <path class="st1" d="M90.32,75.49c-.56-.46-.38-1.07.32-1.1,2.35-.09,5.36,1.32,5.37,3.68,0,.81-.46,1.41-1.15,1.38-.57-.02-.91-.44-1.43-1.08-.87-1.07-2.04-2-3.11-2.89h0ZM110.51,71.49c.48-.69,1.47,0,1.05.77-3.17,5.76-8.76,11.62-14.29,15.83-.96.73-1.87,1.45-2.71,1.45-1.27,0-3.17-1.6-3.53-3.45-.14-.69.47-1.06.89-.81.59.36,1.1.81,1.64,1.09.6.31,1.28.29,2.3-.34,4.63-2.86,10.97-9.17,14.66-14.53h0ZM94.74,69.82c-.57-.44-.42-1.07.29-1.11,2.26-.12,5.42,1.13,5.51,3.48.03.81-.44,1.43-1.13,1.43-.57,0-.94-.4-1.47-1.02-.91-1.07-2.09-1.94-3.19-2.78h0Z"/>
    <path class="st1" d="M93.48,98.87c.96.68,1.42.97,2.12.97,1.66,0,5.33-.75,6.63-1.09.82-.22,1.23-.84,1.8-.84,1.06,0,3.17,1.6,3.17,2.59,0,.73-1.2,1.34-1.76,2.11-.57.77-2.05,2.93-3.34,4.54,3.79,1.53,7.57,4.25,7.57,7.06,0,1-.51,1.67-1.3,1.71-.57.03-.94-.28-1.27-1.04-1.31-3.03-3.16-4.99-5.9-6.66-2.83,3.16-7.31,6.64-11.89,8.55-.92.38-1.29-.79-.5-1.22,5.28-2.88,12-9.02,14.53-14.53.2-.43.08-.64-.36-.57-1.02.15-4.23,1.2-5.56,1.64-.61.2-1.48.53-2.17.53-.96,0-2.36-1.49-2.65-3.01-.16-.84.32-1.1.87-.71Z"/>
    <path class="st1" d="M70.39,33.65c.64-1.07,1.48-2.33,1.95-2.33.61,0,2.73,2.04,2.73,2.84,0,.48-.52.78-1.6.78h-24.28c-.38,0-.64-.13-.64-.65,0-.48.26-.65.64-.65h8.23l.03-17.81h-8.11c-.38,0-.64-.13-.64-.65,0-.48.26-.65.64-.65h20.56c.64-1.07,1.45-2.33,1.92-2.33.61,0,2.73,2.04,2.73,2.84,0,.48-.52.78-1.6.78h-6.22c.03.06.03.1.03.16,0,.36-.29.61-.87.81v16.84h4.51ZM52.36,24.92c-.38-1-.87-2-1.37-2.88-.35-.68.03-1.39.81-.97,2.04.97,3.9,2.84,3.78,4.72-.03,1-.58,1.65-1.48,1.58-.87-.03-1.22-1.03-1.74-2.46ZM55.18,9.12c-.41-.68-.09-1.39.79-1.1,1.77.61,3.61,1.91,3.61,3.62,0,1.03-.58,1.71-1.51,1.71-.84,0-1.19-.9-1.69-2-.35-.74-.76-1.52-1.19-2.23ZM59.52,33.65h4.22l.03-17.81h-3.34c.03.06.03.1.03.16,0,.39-.29.65-.93.81v16.84ZM64.08,13.06c.84-1.55,1.66-3.33,2.12-5.24.06-.29.2-.52.49-.45,1.08.26,2.97,1.32,3,1.87.03.52-.41.71-1.31.71-.79,1.26-2.01,2.52-3.34,3.78-.64.58-1.31.1-.96-.68ZM73.59,22.14c.03.48-.49.65-1.4.58-.87,1.49-2.27,3.36-4.01,5.07-.67.65-1.37.13-.93-.71,1.16-2.07,2.12-4.4,2.79-6.72.06-.29.17-.52.52-.42,1.1.32,3.05,1.58,3.02,2.2Z"/>
    <path class="st1" d="M63.47,51.84c2.21,6.01,6.86,9.86,11.55,11.63.76.29.7.87,0,1.13-.7.29-.9.55-1.22,1.07-.38.61-.79.78-1.57.32-3.43-2-7.24-6.01-9.36-11.93v1.75c0,2.36.12,12.44.12,13.8,0,.74-.47,1.13-1.43,1.13-.58,0-.93-.36-.93-.97,0-1.45.26-10.79.26-13.38v-1.2c-2.24,4.49-6.54,9.63-11.84,12.22-.87.45-1.31-.42-.52-1.03,4.89-3.62,8.7-8.44,11.28-14.54h-10.5c-.38,0-.64-.13-.64-.65,0-.48.26-.65.64-.65h11.58c-.03-3.04-.12-6.46-.38-8.18-.06-.32.12-.48.41-.48,1.92,0,3.52.19,3.52,1,0,.55-.61.94-1.51,1.16-.03,1.16-.06,3.91-.06,6.5h7.04c.7-1.1,1.57-2.42,2.09-2.42.67,0,2.94,2.1,2.94,2.94,0,.48-.52.78-1.8.78h-9.66Z"/>
    <path class="st1" d="M52.33,89.49c.41-.61.93-1.29,1.25-1.29.58,0,2.24,1.42,2.24,2.13,0,.45-.52.84-1.08,1.07-.03,1.71-.06,5.53,0,7.43.81,1.49,1.89,2.39,4.89,2.71,3.58.42,10.59.23,15.07-.19.84-.1.81.84.09,1.03-.55.13-.64.39-.87.84-.23.52-.38.65-1.02.71-3.34.23-10.12.36-14.31-.42-2.59-.55-3.87-1.97-4.71-4.01-1.22,1.46-2.59,3.01-3.69,4.33-.38,1-.81,1.07-1.19.48-.32-.48-.76-1.42-.9-2.07-.15-.42-.12-.58.38-.84,1.31-.68,3-1.75,4.3-2.75.03-1.81.06-6.11.06-7.89h-3.75c-.38,0-.64-.13-.64-.65,0-.48.26-.65.64-.65h3.26ZM50.53,78.21c-.44-.68-.09-1.39.76-1.1,1.86.71,3.61,2.1,3.64,3.85,0,.97-.49,1.65-1.37,1.65-.81,0-1.13-.9-1.69-2.07-.41-.84-.9-1.65-1.34-2.33ZM58,78.37c-.38,0-.64-.13-.64-.65,0-.48.26-.65.64-.65h11.75c.49-.52,1.1-1.07,1.43-1.03.55.03,2.24,1.78,2.18,2.75-.03.68-.99.55-1.66.58-1.08.71-2.76,1.87-4.3,2.94l.09.16c.23.48.23.94.03,1.29h3.34c.38-.52.81-1.03.99-1.03.7,0,2.41,1.71,2.41,2.33,0,.42-.55.74-1.16,1-.06,2.91,0,7.56-.06,11.44,0,1.94-1.22,2.75-2.36,2.75s-.44-1.2-1.98-1.78c-.58-.29-.49-1.07.06-1.07.2,0,1.08.13,1.51.13.64,0,.87-.29.93-1.07.03-.65.03-1.55.06-2.52h-4.83l.03,5.2c0,.71-.44.94-1.22.94-.47,0-.76-.29-.76-.87,0-.42.06-3.2.09-5.27h-4.54l.03,5.23c0,.71-.41,1.07-1.25,1.07-.49,0-.76-.32-.76-.91,0-2.81.26-12.57-.12-16.16-.03-.26.17-.45.44-.42.44.03,1.54.52,2.18,1h5.12c-.41-.42-.9-.94-1.48-1.45-.58-.48-1.22-1-1.83-1.42-.44-.26-.26-1,.35-.94,1.75.23,3,.81,3.81,1.42,1.02-.94,2.04-1.87,3.02-3.01h-11.55ZM60.13,85.06c-.03.61-.06,1.78-.09,3.01h4.54c0-1.1-.03-2.2-.12-3.01h-4.33ZM64.61,92.66v-3.3h-4.57v3.3h4.57ZM71.27,92.66v-3.3h-4.8l-.03,2.81v.48h4.83ZM67.37,85.06c-.03.32-.32.55-.87.65,0,.45-.03,1.36-.03,2.36h4.8v-3.01h-3.9Z"/>
    <path class="st1" d="M57.49,108.52c1.54.35,2.79,1.97,2.79,3.49,0,.67-.48,1.88-.9,3.18-.51,1.58-.99,3.32-.99,4.22,0,.69.24.69.44.05,1.02-3.13,2.39-6.11,4.69-6.1,2.4.02,4.99,2.62,4.99,8.15,0,7.75-3.86,12.83-11.43,14.5-1.27.28-1.53-.9-.34-1.35,6.62-2.5,9.37-6.27,9.37-13.17,0-3.89-1.12-6.35-2.89-6.35-2.07,0-3.74,5.24-3.74,8.32,0,1.5.41,2.62.41,3.39s-.24,1.22-.76,1.35c-.48.12-1.04-.15-1.37-.67-.61-.99-1.05-2.92-1.08-4.84-.05-3.18.92-7.83,1.09-9.61.14-1.49-.14-2.27-.88-3.81-.24-.51.03-.87.57-.75h0Z"/>
    <path class="st1" d="M31.28,10.98c.64-1.07,1.51-2.33,1.98-2.33.58,0,2.82,2.04,2.82,2.84,0,.45-.52.78-1.69.78h-6.78c.9.36,1.83,1,1.86,1.42,0,.48-.41.65-1.31.68-.67,1-1.34,1.87-2.18,2.52-.09.06-.17.13-.26.16h6.05c.47-.65,1.02-1.33,1.22-1.33.73,0,2.68,1.84,2.68,2.46,0,.45-.64.84-1.31,1.1-.09,3.68-.03,9.7-.06,14.54,0,2-1.51,2.81-2.62,2.81s-.47-1.26-2.21-1.87c-.61-.23-.52-1.03.03-1.03.26,0,1.25.13,1.75.13.7,0,.99-.29,1.05-1.13.09-1.68.06-4.85.06-7.17v-7.21h-7.07c.73.13,1.75.42,1.75.87,0,.36-.38.55-.99.68-.03.23-.03,1.71-.03,1.91,0,.48.17.45,1.66.45,1.6,0,1.54-.19,1.8-.42.32-.36.47-.94.64-1.52.2-.68.93-.55.93.19-.06,1.49.41,1.49.41,2.07,0,1-1.25,1.45-3.81,1.45-2.88,0-3.4-.06-3.4-1.55,0-.71-.03-3.01-.06-3.62-.03-.29.03-.45.15-.52h-3.64c.87.13,1.72.48,1.72.94,0,.42-.35.65-1.1.74-.32,1.16-.81,2.2-1.54,2.97-.93,1-2.18,1.84-4.39,2.33-.64.23-1.08-.61-.29-1.07,1.6-.68,2.5-1.36,3.14-2.13.61-.71,1.02-1.81,1.22-3.23.03-.29.06-.45.17-.55h-4.42c-.2.13-.49.19-.79.26-.09,1.58-.09,6.69-.09,7.72l.03,9.34c0,.71-.41,1.07-1.31,1.07-.52,0-.79-.32-.79-.9,0-3.17.29-15.38-.12-19.33-.03-.23.17-.45.41-.45.41.03,1.57.48,2.33,1h10.32c-.2-.13-.26-.45-.09-.84.49-1.13.99-2.29,1.25-3.75,0-.06.03-.13.06-.19h-15.65c-.38,0-.64-.13-.64-.65,0-.48.26-.65.64-.65h11.23c0-1.07-.03-2.23-.09-3.04-.03-.32.15-.48.41-.48.49,0,3.14.1,3.14.94,0,.65-.61.91-1.51,1.1v1.49h7.33ZM18.2,15.08c-.2-.52-.49-1.1-.76-1.62-.35-.74.06-1.42.93-.97,1.37.68,2.7,1.62,2.56,2.97-.09.87-.67,1.45-1.54,1.32-.73-.06-.9-.9-1.19-1.71ZM25.67,25.91c.35-.55.84-1.16,1.1-1.16.49,0,1.98,1.26,1.98,1.87,0,.32-.29.58-.67.78-.03,1.32,0,4.1,0,4.88,0,1-.41,1.23-1.19,1.23-.67,0-.84-.58-.84-1.1v-.45h-5.55v1.03c0,.68-.44.97-1.25.97-.49,0-.76-.29-.76-.84,0-1.84.15-5.43-.12-7.98-.03-.26.17-.45.44-.39.55.06,1.8.61,2.38,1.16h4.48ZM26.08,30.66c0-1.13.03-2.52.03-3.46h-5.58c-.03.65-.06,2.07-.06,2.62v.84h5.61Z"/>
    <path class="st1" d="M31.69,46.02c.64-1.07,1.48-2.33,1.95-2.33.61,0,2.82,2,2.82,2.84,0,.45-.52.78-1.69.78H15.17c.06,2.59,0,4.91-.09,7.76-.15,4.82-.81,10.6-4.97,14.35-.67.68-1.4.03-.81-.81,2.53-3.72,3.61-7.43,3.66-14.35,0-2.78-.09-5.98-.26-8.92-.06-.52.15-.68.52-.61.49.1,1.77.71,2.44,1.29h6.81c.03-1.33,0-2.94-.09-3.94-.03-.32.15-.48.41-.48.49,0,3.43.1,3.43.97,0,.68-.64.94-1.54,1.16v2.29h7.01ZM30.53,52.97c.64-1.07,1.48-2.33,1.98-2.33.61,0,2.73,2.04,2.73,2.84,0,.48-.61.78-1.63.78h-8.32v5.33h4.33c.44-.61.96-1.26,1.28-1.26.61,0,2.38,1.45,2.38,2.17,0,.45-.49.74-1.02.97-.09,2.33,0,6.72,0,7.92,0,1-.47,1.23-1.31,1.23-.7,0-.93-.58-.93-1.1v-1.33h-10.5v1.52c0,.68-.47,1-1.34,1-.55,0-.81-.32-.81-.87,0-2.17.17-8.05-.12-10.99-.03-.26.17-.45.41-.42.49.03,1.83.58,2.56,1.16h3.05c.06-3.56,0-9.15-.23-11.15-.03-.29.15-.45.41-.45.49,0,3.37.1,3.37.94,0,.71-.64.97-1.54,1.2v2.84h5.23ZM30.06,66.9c0-2.07.03-4.75.03-6.01h-10.21c-.12.03-.2.03-.32.06-.03.84-.03,3.36-.03,3.94v2h10.53Z"/>
    <path class="st1" d="M14.76,103.67c0,.71-.41,1.03-1.28,1.03-.52,0-.79-.32-.79-.91,0-1.84.17-9.34.06-13.44-.81,1.03-1.72,2.04-2.73,2.91-.7.55-1.28-.06-.76-.81,2.59-3.33,4.48-6.82,5.53-10.28.12-.32.26-.45.55-.36.9.32,2.59,1.39,2.56,2-.03.52-.55.61-1.4.48-.49.97-1.13,2.17-1.95,3.46.67.32,1.34.78,1.34,1.16,0,.42-.49.61-1.08.71-.09,1.29-.09,5.43-.09,6.37l.03,7.66ZM9.85,82.89c2.18-2.13,4.07-4.65,5.12-7.14.15-.29.29-.45.58-.36.93.42,2.53,1.52,2.47,2.13-.06.52-.58.61-1.42.42-1.22,1.55-3.46,4.23-6.08,5.82-.76.48-1.28-.19-.67-.87ZM23.55,98.73c1.89-.39,3.52-.81,4.92-1.2,1.22-.32,1.48.65.35,1.2-2.44,1.07-5.79,2.1-10.27,3.04-.09.68-.32,1.23-.79,1.23-.55,0-1.08-1.2-1.34-2.84-.03-.29.09-.39.32-.42,1.75-.16,3.34-.39,4.8-.61.03-1.26.03-3.07.03-4.82h-4.04c-.38,0-.64-.13-.64-.65,0-.48.26-.65.64-.65h4.04c0-1.84-.03-3.46-.12-4.17-.03-.32.15-.48.41-.48.49,0,3.08.13,3.08.9,0,.61-.55.84-1.4,1.07v2.68h1.63c.55-.97,1.25-2,1.63-2,.55,0,2.24,1.91,2.24,2.59.03.48-.55.71-1.25.71h-4.25v4.43ZM32.68,85.38c.58-1,1.34-2.1,1.74-2.1.58,0,2.41,1.94,2.41,2.68.03.45-.58.71-1.4.71h-.41c-.12.32-.67.52-1.02.58-.06,3.78-.03,10.08-.03,14.8,0,1.58-.99,2.49-2.18,2.49-.9,0-.76-.91-2.65-1.68-.67-.29-.55-1.13.03-1.1.67.1,1.48.16,1.8.16.64,0,.96-.26.99-1.03.06-1.52.09-3.78.06-5.88,0-2.49-.06-6.82-.17-8.34h-2.53c.06.13.09.23.09.32,0,.45-.52.68-1.4.68h-10.96c-.38,0-.64-.13-.64-.65,0-.48.26-.65.64-.65h4.48c0-1.13.03-2.81.03-4.46h-3.46c-.38,0-.64-.13-.64-.65,0-.48.26-.65.64-.65h3.46c-.03-1.87-.06-3.56-.12-4.27-.03-.32.15-.48.41-.48.49,0,3.08.13,3.08.91,0,.61-.55.84-1.4,1.07v2.78h1.05c.55-.87,1.19-1.84,1.57-1.84.52,0,2.27,1.78,2.27,2.46,0,.45-.52.68-1.31.68h-3.58v4.46h1.89c.55-.9,1.22-1.91,1.6-1.91.32,0,1.05.61,1.63,1.23.09-.23.29-.32.58-.32h3.43ZM29.36,79.56c-.38,0-.64-.13-.64-.65,0-.48.26-.65.64-.65h3.14c.58-1,1.31-2.1,1.75-2.1.55,0,2.41,1.94,2.44,2.68,0,.45-.61.71-1.42.71h-5.9Z"/>
  </g>
</svg>