<?xml version="1.0" encoding="UTF-8"?>
<svg id="_レイヤー_1" xmlns="http://www.w3.org/2000/svg" version="1.1" viewBox="0 0 122.56 176.74">
  <!-- Generator: Adobe Illustrator 29.7.1, SVG Export Plug-In . SVG Version: 2.1.1 Build 8)  -->
  <defs>
    <style>
      .st0 {
        fill: #fff;
      }

      .st1 {
        fill: #254624;
      }

      .st2 {
        display: none;
      }
    </style>
  </defs>
  <g id="_着彩_x3000_人_xFF08_白_xFF09_" class="st2">
    <polyline class="st0" points="-166.62 105.16 -166.31 107.1 -164.24 107.67 -162.71 106.97 -161.62 106.42 -161.62 104.79 -167 105.35"/>
    <polygon class="st0" points="-149.93 105.98 -151.18 107.41 -151.5 109.16 -151.18 109.91 -149.18 110.24 -148.31 109.29 -148 107.41 -149.93 105.98"/>
    <polygon class="st0" points="-152.04 126.29 -149.75 126.66 -150.56 130.66 -151.18 129.91 -152.04 126.29"/>
    <polygon class="st0" points="-148.62 126.79 -147.31 126.79 -146.93 129.48 -148 129.48 -148.62 126.79"/>
    <polygon class="st0" points="-29.02 125.85 -28.6 124.14 -27.68 123.81 -27.02 123.81 -26.68 125.48 -28.14 126.02 -29.02 125.85"/>
    <polygon class="st0" points="-19.68 103.78 -20.18 105.56 -19.68 106.48 -18.39 106.73 -16.97 104.58 -19.68 103.78"/>
    <polygon class="st0" points="56.25 115.86 56.57 117.74 57.38 118.54 59.37 119.23 60.32 118.48 60.69 115.39 56.25 115.86"/>
    <polygon class="st0" points="70.88 114.55 69.57 116.57 69.57 117.44 70.88 118.16 72.6 118.41 73.57 117.74 73.94 115.86 70.88 114.55"/>
    <polygon class="st0" points="66.02 121.54 65.72 122.55 66.75 123.1 67.82 121.54 67.07 121.54 66.02 121.54"/>
    <polygon class="st0" points="140.29 106.57 140.29 108.6 140.91 108.79 141.94 108.79 142.63 108.29 142.63 106.85 140.29 106.57"/>
    <polygon class="st0" points="149.6 106.85 149.16 109.04 149.6 109.45 150.41 109.45 151.35 107.95 149.6 106.85"/>
    <polygon class="st0" points="206.91 104.01 205.88 104.48 206.39 105.95 207.75 105.29 206.91 104.01"/>
    <polygon class="st0" points="60.43 19.52 63.19 19.87 62.36 22.52 61.2 22.2 60.43 19.52"/>
    <polygon class="st0" points="56.44 22.02 57.78 22.02 58.64 24.21 59.46 23.15 59.92 22.69 60.69 22.7 61.81 23.51 63.19 22.77 64.28 23.11 65.03 24.21 65.14 25.21 65.14 27.1 64.72 27.33 58.86 27.52 58.69 25.21 57.44 25.6 56.44 24.77 56.44 23.15 56.44 22.02"/>
    <polygon class="st0" points="-167 108.39 -163.53 113.02 -164.31 115.14 -160.52 117.89 -161.56 119.15 -165.34 115.55 -166.14 119.87 -171.81 119.87 -171.06 112.98 -169.68 110.42 -167 108.39"/>
    <polygon class="st0" points="-170.68 119.87 -167.65 120.98 -168.15 130.66 -170.25 130.66 -170.68 119.87"/>
    <polyline class="st0" points="-150.01 111.13 -153.43 115.52 -151.1 115.91 -153.43 125.7 -146.93 125.7 -147.53 116.75 -144.56 119.35 -144.24 118.82 -148.23 110.89 -150.43 111.03"/>
    <polyline class="st0" points="-144.8 123.4 -145.08 125.69 -143.31 126.98 -141.26 126.24 -140.68 122.35 -145.3 122.63"/>
    <polygon class="st0" points="-75.62 106.05 -80.93 106.05 -80.93 108.39 -78.28 110.55 -75.53 112.01 -72.88 111.68 -71.06 111.39 -69.56 109.34 -69.56 106.05 -73.78 109.61 -75.62 106.05"/>
    <polygon class="st0" points="-75.54 103.78 -75.14 102.65 -72.59 107.86 -74.06 108.01 -75.54 103.78"/>
    <polygon class="st0" points="-77.68 112.01 -75.95 112.92 -72.9 113.46 -71.96 121.36 -78.93 121.36 -77.68 112.01"/>
    <polyline class="st0" points="-29 126.91 -26.06 126.02 -26.06 131.6 -29 131.6 -29.02 126.6"/>
    <path class="st0" d="M-19.68,117.35c.46.24,8.84-2.43,8.84-2.43v3.01l-.99,2.65-1.84,1.65-3.56-.29-2.03-1.04-.42-3.55Z"/>
    <polygon class="st0" points="-20.91 108.01 -18.58 107.52 -16.97 108.9 -15.26 110.13 -15.26 115.43 -20.18 117.35 -20.02 120.13 -18.35 121.36 -16.99 122.96 -16.97 124.52 -20.91 124.52 -20.91 113.85 -20.91 108.01"/>
    <polygon class="st0" points="57.89 119.92 60.32 122.32 61.25 120.41 62.82 122.04 63.82 123.85 63.82 126.79 63.57 128.03 59.88 127.27 58.06 127.56 56.25 128.03 56.43 123.98 57.63 120.79 57.89 119.92"/>
    <polygon class="st0" points="56.25 128.03 59.08 127.4 60.61 127.59 62.51 127.72 63.82 129.48 64.19 131.41 64.19 133.91 63.25 134.35 62.51 131.79 62.5 128.79 58.47 128.43 57.09 129.88 56.25 132.04 55.5 134.85 54.1 134.6 54.1 132.1 54.69 129.79 56.25 128.03"/>
    <polygon class="st0" points="70.5 128.03 74.82 128.35 76.44 129.48 77.5 131.13 77 134.1 76 134.85 75.82 130.79 73.5 129.6 71.25 129.79 70.5 130.48 70.13 134.85 67.82 134.85 68.07 131.44 68.88 129.66 69.19 128.79 70.5 128.03"/>
    <polygon class="st0" points="75.13 119.23 71.25 119.23 70 121.54 69.57 122.66 67.82 121.79 66.75 123.1 70.56 125.66 70.54 127.69 74.82 128.35 76.51 126.57 77.97 122.68 76.47 120.12 75.13 119.23"/>
    <polygon class="st0" points="58.47 119.23 60.24 119.9 61.13 119.92 59.88 122.04 58.16 120.19 58.47 119.23"/>
    <polyline class="st0" points="56.25 121.54 57.16 122.04 56.71 123.98 54.75 127.27 53.85 126.66 56.25 121.79"/>
    <polygon class="st0" points="139.63 109.79 143.07 109.45 143.69 115.86 143 120.41 138.13 120.79 137.88 116.65 139.63 109.79"/>
    <path class="st0" d="M151.35,116.56l5.28-1.45.87,2.25s-.05,3.47-.5,3.42-2.58,1.15-2.58,1.15c0,0-1.1-.1-1.38-.39-.27-.29-1.48-1.94-1.7-2.19s0-2.79,0-2.79h.01Z"/>
    <path class="st0" d="M149.16,120.04h1.72l3.5,3,.44,2-1.78,1.23s-2.16.04-2.79,0c-.62-.04-2.34-1.1-2.34-1.1l1.25-5.12h0Z"/>
    <path class="st0" d="M205.68,107.47l3.07.32,3.19,5.44-1.06,3.17h-1.98l.48,3.26s-1.81.19-2,0-1.7-.81-1.7-.81v-11.38h0Z"/>
    <polygon class="st0" points="206.44 119.75 209.44 120.85 209.44 123.6 208.81 126.48 209.51 130.54 209.51 131.29 207.98 131.29 206.82 132.4 205.68 131.54 204.69 125.79 206.44 119.75"/>
    <path class="st0" d="M188.94,122.98"/>
    <polygon class="st0" points="193.25 130.91 194.82 130.48 195.44 132.1 197.19 133.29 200.13 133.29 200.63 135.1 197.75 135.1 195.19 135.1 194.69 132.79 192.63 132.4 193.25 130.91"/>
    <polygon class="st0" points="-170.31 130.98 -170.31 132.1 -167.81 132.58 -166.75 131.74 -166.17 132.23 -165.75 130.66 -166.51 130.3 -167.37 131.04 -170.31 130.98"/>
    <polygon class="st0" points="-165.75 108.11 -163.56 108.66 -163.56 111.36 -164.65 110.8 -165.75 109.48 -165.75 108.11"/>
    <polygon class="st0" points="-131.47 125.7 -130.71 126.1 -129.97 126.35 -128.12 128.13 -130.48 128.13 -130.71 130.35 -132.06 130.91 -133.78 130.91 -134.42 132.29 -136.09 132.29 -136.68 130.41 -135.7 128.6 -134.06 127.91 -133.12 128.13 -132.4 127.23 -131.47 125.7"/>
  </g>
  <path class="st1" d="M98.67,29.42c1.07.26,1.95,1.13,1.95,1.74s-.22,1.09-.92,2.05c-1.96,2.65-5.15,6.49-10.14,8.95-.84.42-1.24-.66-.6-1.11,5.01-3.45,8.07-7.73,8.86-9.19.39-.71.4-.99.13-1.51-.34-.67-.05-1.12.73-.93h-.01ZM101.39,40.57c.54,0,.78-.16.78-.82,0-1.45-.15-8.13-.18-11.21-2.52.38-5.39,1.12-6.94,1.55-1.02.28-1.76.6-2.5.6-1.09,0-2.33-1.69-2.47-3.2-.05-.58.38-.78.76-.51.76.54,1.5.96,2.26.96,1.26,0,5.62-.69,8.89-1.19.01-1.46.03-3.08-.03-3.91-.05-.59-.24-.82-.87-1.1-.7-.32-1.02-.53-1.02-.82,0-.54.87-.95,1.62-.95,1.15,0,2.85.6,2.85,1.42,0,1.05-.53,1.86-.73,5.08.32-.05.6-.09.86-.13,1.35-.19,2.07-.63,2.55-.63,1.25,0,2.84.92,2.84,1.94,0,.71-.37.99-.98.99-.69,0-2.55-.35-4.05-.35-.44,0-.88.02-1.29.05-.06,3,.03,7.11.13,9.31.06,1.42.3,2.86.3,3.75,0,1.37-1.2,2.84-2.16,2.84-.81,0-.73-1.31-2.78-2.96-.46-.37-.28-1.05.36-.94.46.08,1.27.23,1.81.23h0Z"/>
  <path class="st1" d="M90.37,53.46c0-.58.49-.73.82-.48.73.57,1.16.86,2.06.86,2.22,0,9.54-1.14,10.98-1.42,1.22-.23,1.82-.69,2.5-.69,1,0,2.96,1.81,2.96,2.84,0,.75-1.44,1.39-2.25,1.96-.96.68-3.23,2.34-5.34,3.74-.07.17-.14.36-.21.58-1.97,5.95-5.56,11.29-9.92,14.03-.76.48-1.24-.49-.61-1.08,4.56-4.2,7.82-10.35,8.25-13.47.18-1.33-1.06-1.52-1.06-2.08,0-.5.65-.86,1.28-.86.92,0,1.99.69,2.41,1.24,1.48-1.33,2.8-2.78,3.36-3.54.46-.64.43-1.12-.19-1.12s-5.8,1.12-8.73,1.95c-1.73.49-3.01,1.06-3.67,1.06s-1.82-1-2.32-2.11c-.23-.51-.31-.9-.31-1.4h-.01Z"/>
  <path class="st1" d="M90.46,87.18c-.52-.45-.36-1.06.3-1.09,2.19-.09,5,1.31,5.02,3.64,0,.8-.43,1.4-1.07,1.37-.54-.02-.85-.44-1.34-1.07-.82-1.06-1.9-1.98-2.91-2.86h0ZM109.33,83.22c.45-.69,1.38,0,.98.76-2.96,5.69-8.19,11.49-13.36,15.65-.89.72-1.74,1.43-2.53,1.43-1.19,0-2.96-1.58-3.3-3.42-.13-.68.44-1.05.83-.8.55.35,1.02.8,1.53,1.08.57.31,1.19.28,2.15-.34,4.33-2.83,10.25-9.07,13.7-14.37h0ZM94.87,80.48c2.11-.12,5.06,1.12,5.15,3.45.03.8-.41,1.41-1.06,1.41-.54,0-.88-.39-1.37-1.01-.85-1.06-1.95-1.92-2.99-2.75-.53-.43-.39-1.06.27-1.1Z"/>
  <path class="st1" d="M93.42,110.3c.9.67,1.33.96,1.98.96,1.55,0,4.98-.74,6.2-1.08.76-.22,1.15-.83,1.68-.83.99,0,2.96,1.59,2.96,2.56,0,.73-1.12,1.33-1.65,2.08-.53.76-1.92,2.9-3.12,4.49,3.54,1.51,7.08,4.2,7.08,6.98,0,.99-.48,1.65-1.22,1.69-.53.03-.88-.27-1.19-1.03-1.22-3-2.95-4.93-5.51-6.59-2.64,3.13-6.83,6.57-11.11,8.46-.86.38-1.21-.78-.47-1.21,4.93-2.85,11.21-8.92,13.58-14.37.19-.43.08-.63-.34-.56-.96.15-3.95,1.18-5.2,1.62-.57.2-1.38.52-2.02.52-.9,0-2.21-1.47-2.47-2.97-.15-.83.3-1.09.82-.7v-.02Z"/>
  <path class="st1" d="M70.14,39.13c.64-1.07,1.48-2.33,1.95-2.33.61,0,2.73,2.04,2.73,2.84,0,.48-.52.78-1.6.78h-24.29c-.38,0-.64-.13-.64-.65,0-.48.26-.65.64-.65h8.23l.03-17.81h-8.11c-.38,0-.64-.13-.64-.65,0-.48.26-.65.64-.65h20.56c.64-1.07,1.45-2.33,1.92-2.33.61,0,2.73,2.04,2.73,2.84,0,.48-.52.78-1.6.78h-6.22c.03.06.03.1.03.16,0,.36-.29.61-.87.81v16.84h4.51v.02ZM52.11,30.41c-.38-1-.87-2-1.37-2.88-.35-.68.03-1.39.81-.97,2.04.97,3.9,2.84,3.78,4.72-.03,1-.58,1.65-1.48,1.58-.87-.03-1.22-1.03-1.74-2.46h0ZM54.93,14.6c-.41-.68-.09-1.39.79-1.1,1.77.61,3.61,1.91,3.61,3.62,0,1.03-.58,1.71-1.51,1.71-.84,0-1.19-.9-1.69-2-.35-.74-.76-1.52-1.19-2.23h-.01ZM59.26,39.13h4.22l.03-17.81h-3.34c.03.06.03.1.03.16,0,.39-.29.65-.93.81v16.84h0ZM63.83,18.55c.84-1.55,1.66-3.33,2.12-5.24.06-.29.2-.52.5-.45,1.08.26,2.97,1.32,3,1.87.03.52-.41.71-1.31.71-.79,1.26-2.01,2.52-3.34,3.78-.64.58-1.31.1-.96-.68h-.01ZM73.34,27.63c.03.48-.49.65-1.4.58-.87,1.49-2.27,3.36-4.01,5.07-.67.65-1.37.13-.93-.71,1.16-2.07,2.12-4.4,2.79-6.72.06-.29.17-.52.52-.42,1.1.32,3.05,1.58,3.02,2.2h.01Z"/>
  <path class="st1" d="M63.22,57.32c2.21,6.01,6.86,9.86,11.55,11.63.76.29.7.87,0,1.13-.7.29-.9.55-1.22,1.07-.38.61-.79.78-1.57.32-3.43-2-7.24-6.01-9.36-11.93v1.75c0,2.36.12,12.44.12,13.8,0,.74-.47,1.13-1.43,1.13-.58,0-.93-.36-.93-.97,0-1.45.26-10.79.26-13.38v-1.2c-2.24,4.49-6.54,9.63-11.84,12.22-.87.45-1.31-.42-.52-1.03,4.89-3.62,8.7-8.44,11.29-14.54h-10.5c-.38,0-.64-.13-.64-.65,0-.48.26-.65.64-.65h11.58c-.03-3.04-.12-6.46-.38-8.18-.06-.32.12-.48.41-.48,1.92,0,3.52.19,3.52,1,0,.55-.61.94-1.51,1.16-.03,1.16-.06,3.91-.06,6.5h7.04c.7-1.1,1.57-2.42,2.09-2.42.67,0,2.94,2.1,2.94,2.94,0,.48-.52.78-1.8.78h-9.68Z"/>
  <path class="st1" d="M52.08,94.98c.41-.61.93-1.29,1.25-1.29.58,0,2.24,1.42,2.24,2.13,0,.45-.52.84-1.08,1.07-.03,1.71-.06,5.53,0,7.43.81,1.49,1.89,2.39,4.89,2.71,3.58.42,10.59.23,15.07-.19.84-.1.81.84.09,1.03-.55.13-.64.39-.87.84-.23.52-.38.65-1.02.71-3.34.23-10.12.36-14.31-.42-2.59-.55-3.87-1.97-4.71-4.01-1.22,1.46-2.59,3.01-3.69,4.33-.38,1-.81,1.07-1.19.48-.32-.48-.76-1.42-.9-2.07-.15-.42-.12-.58.38-.84,1.31-.68,3-1.75,4.3-2.75.03-1.81.06-6.11.06-7.89h-3.75c-.38,0-.64-.13-.64-.65,0-.48.26-.65.64-.65h3.26l-.02.03ZM50.27,83.7c-.44-.68-.09-1.39.76-1.1,1.86.71,3.61,2.1,3.64,3.85,0,.97-.49,1.65-1.37,1.65-.81,0-1.13-.9-1.69-2.07-.41-.84-.9-1.65-1.34-2.33ZM57.75,83.86c-.38,0-.64-.13-.64-.65,0-.48.26-.65.64-.65h11.75c.49-.52,1.1-1.07,1.42-1.03.55.03,2.24,1.78,2.18,2.75-.03.68-.99.55-1.66.58-1.08.71-2.76,1.87-4.3,2.94l.09.16c.23.48.23.94.03,1.29h3.34c.38-.52.81-1.03.99-1.03.7,0,2.41,1.71,2.41,2.33,0,.42-.55.74-1.16,1-.06,2.91,0,7.56-.06,11.44,0,1.94-1.22,2.75-2.36,2.75s-.44-1.2-1.98-1.78c-.58-.29-.5-1.07.06-1.07.2,0,1.08.13,1.51.13.64,0,.87-.29.93-1.07.03-.65.03-1.55.06-2.52h-4.83l.03,5.2c0,.71-.44.94-1.22.94-.47,0-.76-.29-.76-.87,0-.42.06-3.2.09-5.27h-4.54l.03,5.24c0,.71-.41,1.07-1.25,1.07-.49,0-.76-.32-.76-.91,0-2.81.26-12.57-.12-16.16-.03-.26.17-.45.44-.42.44.03,1.54.52,2.18,1h5.12c-.41-.42-.9-.94-1.48-1.45-.58-.49-1.22-1-1.83-1.42-.44-.26-.26-1,.35-.94,1.75.23,3,.81,3.81,1.42,1.02-.94,2.04-1.88,3.02-3.01h-11.55.02ZM59.87,90.55c-.03.61-.06,1.78-.09,3.01h4.54c0-1.1-.03-2.2-.12-3.01,0,0-4.33,0-4.33,0ZM64.35,98.15v-3.3h-4.57v3.3h4.57ZM71.01,98.15v-3.3h-4.8l-.03,2.81v.49s4.83,0,4.83,0ZM67.11,90.55c-.03.32-.32.55-.87.65,0,.45-.03,1.36-.03,2.36h4.8v-3.01h-3.9Z"/>
  <path class="st1" d="M57.71,114.01c1.37.35,2.49,1.97,2.49,3.49,0,.67-.42,1.88-.8,3.18-.46,1.58-.88,3.32-.88,4.22,0,.69.21.69.39.05.91-3.13,2.13-6.11,4.17-6.1,2.13.02,4.44,2.62,4.44,8.15,0,7.75-3.43,12.83-10.17,14.5-1.13.28-1.36-.9-.3-1.35,5.89-2.5,8.33-6.27,8.33-13.17,0-3.89-1-6.35-2.57-6.35-1.84,0-3.32,5.24-3.32,8.32,0,1.5.37,2.62.37,3.39s-.21,1.22-.67,1.35c-.43.12-.93-.15-1.22-.67-.55-.99-.93-2.92-.96-4.84-.04-3.18.82-7.83.97-9.61.13-1.49-.12-2.27-.78-3.81-.22-.51.02-.87.51-.75h0Z"/>
  <g>
    <path class="st1" d="M31.65,65.44c.64-1.07,1.51-2.33,1.98-2.33.58,0,2.82,2.04,2.82,2.84,0,.45-.52.78-1.69.78h-6.78c.9.36,1.83,1,1.86,1.42,0,.48-.41.65-1.31.68-.67,1-1.34,1.87-2.18,2.52-.09.06-.17.13-.26.16h6.05c.47-.65,1.02-1.33,1.22-1.33.73,0,2.68,1.84,2.68,2.46,0,.45-.64.84-1.31,1.1-.09,3.68-.03,9.7-.06,14.54,0,2-1.51,2.81-2.62,2.81s-.47-1.26-2.21-1.87c-.61-.23-.52-1.03.03-1.03.26,0,1.25.13,1.75.13.7,0,.99-.29,1.05-1.13.09-1.68.06-4.85.06-7.17v-7.21h-7.07c.73.13,1.75.42,1.75.87,0,.36-.38.55-.99.68-.03.23-.03,1.71-.03,1.91,0,.48.17.45,1.66.45,1.6,0,1.54-.19,1.8-.42.32-.36.47-.94.64-1.52.2-.68.93-.55.93.19-.06,1.49.41,1.49.41,2.07,0,1-1.25,1.45-3.81,1.45-2.88,0-3.4-.06-3.4-1.55,0-.71-.03-3.01-.06-3.62-.03-.29.03-.45.15-.52h-3.64c.87.13,1.72.48,1.72.94,0,.42-.35.65-1.1.74-.32,1.16-.81,2.2-1.54,2.97-.93,1-2.18,1.84-4.39,2.33-.64.23-1.08-.61-.29-1.07,1.6-.68,2.5-1.36,3.14-2.13.61-.71,1.02-1.81,1.22-3.23.03-.29.06-.45.17-.55h-4.42c-.2.13-.49.19-.79.26-.09,1.58-.09,6.69-.09,7.72l.03,9.34c0,.71-.41,1.07-1.31,1.07-.52,0-.79-.32-.79-.9,0-3.17.29-15.38-.12-19.33-.03-.23.17-.45.41-.45.41.03,1.57.48,2.33,1h10.32c-.2-.13-.26-.45-.09-.84.49-1.13.99-2.29,1.25-3.75,0-.06.03-.13.06-.19h-15.65c-.38,0-.64-.13-.64-.65,0-.48.26-.65.64-.65h11.23c0-1.07-.03-2.23-.09-3.04-.03-.32.15-.48.41-.48.49,0,3.14.1,3.14.94,0,.65-.61.91-1.51,1.1v1.49h7.33,0ZM18.56,69.54c-.2-.52-.49-1.1-.76-1.62-.35-.74.06-1.42.93-.97,1.37.68,2.7,1.62,2.56,2.97-.09.87-.67,1.45-1.54,1.32-.73-.06-.9-.9-1.19-1.71h0ZM26.04,80.37c.35-.55.84-1.16,1.1-1.16.49,0,1.98,1.26,1.98,1.87,0,.32-.29.58-.67.78-.03,1.32,0,4.1,0,4.88,0,1-.41,1.23-1.19,1.23-.67,0-.84-.58-.84-1.1v-.45h-5.55v1.03c0,.68-.44.97-1.25.97-.49,0-.76-.29-.76-.84,0-1.84.15-5.43-.12-7.98-.03-.26.17-.45.44-.39.55.06,1.8.61,2.38,1.16,0,0,4.48,0,4.48,0ZM26.45,85.12c0-1.13.03-2.52.03-3.46h-5.58c-.03.65-.06,2.07-.06,2.62v.84s5.61,0,5.61,0Z"/>
    <path class="st1" d="M32.06,100.48c.64-1.07,1.48-2.33,1.95-2.33.61,0,2.82,2,2.82,2.84,0,.45-.52.78-1.69.78H15.54c.06,2.59,0,4.91-.09,7.76-.15,4.82-.81,10.6-4.97,14.35-.67.68-1.4.03-.81-.81,2.53-3.72,3.61-7.43,3.66-14.35,0-2.78-.09-5.98-.26-8.92-.06-.52.15-.68.52-.61.49.1,1.77.71,2.44,1.29h6.81c.03-1.33,0-2.94-.09-3.94-.03-.32.15-.48.41-.48.49,0,3.43.1,3.43.97,0,.68-.64.94-1.54,1.16v2.29h7.01ZM30.9,107.42c.64-1.07,1.48-2.33,1.98-2.33.61,0,2.73,2.04,2.73,2.84,0,.48-.61.78-1.63.78h-8.32v5.33h4.33c.44-.61.96-1.26,1.28-1.26.61,0,2.38,1.45,2.38,2.17,0,.45-.49.74-1.02.97-.09,2.33,0,6.72,0,7.92,0,1-.47,1.23-1.31,1.23-.7,0-.93-.58-.93-1.1v-1.33h-10.5v1.52c0,.68-.47,1-1.34,1-.55,0-.81-.32-.81-.87,0-2.17.17-8.05-.12-10.99-.03-.26.17-.45.41-.42.49.03,1.83.58,2.56,1.16h3.05c.06-3.56,0-9.15-.23-11.15-.03-.29.15-.45.41-.45.49,0,3.37.1,3.37.94,0,.71-.64.97-1.54,1.2v2.84h5.25ZM30.43,121.35c0-2.07.03-4.75.03-6.01h-10.21c-.12.03-.2.03-.32.06-.03.84-.03,3.36-.03,3.94v2h10.53Z"/>
    <path class="st1" d="M15.13,158.13c0,.71-.41,1.03-1.28,1.03-.52,0-.79-.32-.79-.91,0-1.84.17-9.34.06-13.44-.81,1.03-1.72,2.04-2.73,2.91-.7.55-1.28-.06-.76-.81,2.59-3.33,4.48-6.82,5.53-10.28.12-.32.26-.45.55-.36.9.32,2.59,1.39,2.56,2-.03.52-.55.61-1.4.49-.49.97-1.13,2.17-1.95,3.46.67.32,1.34.78,1.34,1.16,0,.42-.49.61-1.08.71-.09,1.29-.09,5.43-.09,6.37l.03,7.66h0ZM10.22,137.35c2.18-2.13,4.07-4.65,5.12-7.14.15-.29.29-.45.58-.36.93.42,2.53,1.52,2.47,2.13-.06.52-.58.61-1.42.42-1.22,1.55-3.46,4.23-6.08,5.82-.76.49-1.28-.19-.67-.87h0ZM23.92,153.19c1.89-.39,3.52-.81,4.92-1.2,1.22-.32,1.48.65.35,1.2-2.44,1.07-5.79,2.1-10.27,3.04-.09.68-.32,1.23-.79,1.23-.55,0-1.08-1.2-1.34-2.84-.03-.29.09-.39.32-.42,1.75-.16,3.34-.39,4.8-.61.03-1.26.03-3.07.03-4.82h-4.04c-.38,0-.64-.13-.64-.65,0-.48.26-.65.64-.65h4.04c0-1.84-.03-3.46-.12-4.17-.03-.32.15-.48.41-.48.49,0,3.08.13,3.08.9,0,.61-.55.84-1.4,1.07v2.68h1.63c.55-.97,1.25-2,1.63-2,.55,0,2.24,1.91,2.24,2.59.03.48-.55.71-1.25.71h-4.25v4.43h.01ZM33.05,139.84c.58-1,1.34-2.1,1.74-2.1.58,0,2.41,1.94,2.41,2.68.03.45-.58.71-1.4.71h-.41c-.12.32-.67.52-1.02.58-.06,3.78-.03,10.08-.03,14.8,0,1.58-.99,2.49-2.18,2.49-.9,0-.76-.91-2.65-1.68-.67-.29-.55-1.13.03-1.1.67.1,1.48.16,1.8.16.64,0,.96-.26.99-1.03.06-1.52.09-3.78.06-5.88,0-2.49-.06-6.82-.17-8.34h-2.53c.06.13.09.23.09.32,0,.45-.52.68-1.4.68h-10.96c-.38,0-.64-.13-.64-.65,0-.49.26-.65.64-.65h4.48c0-1.13.03-2.81.03-4.46h-3.46c-.38,0-.64-.13-.64-.65,0-.48.26-.65.64-.65h3.46c-.03-1.87-.06-3.55-.12-4.27-.03-.32.15-.49.41-.49.49,0,3.08.13,3.08.91,0,.61-.55.84-1.4,1.07v2.78h1.05c.55-.87,1.19-1.84,1.57-1.84.52,0,2.27,1.78,2.27,2.46,0,.45-.52.68-1.31.68h-3.58v4.46h1.89c.55-.91,1.22-1.91,1.6-1.91.32,0,1.05.61,1.63,1.23.09-.23.29-.32.58-.32h3.45ZM29.73,134.02c-.38,0-.64-.13-.64-.65,0-.48.26-.65.64-.65h3.14c.58-1,1.31-2.1,1.75-2.1.55,0,2.41,1.94,2.44,2.68,0,.45-.61.71-1.42.71h-5.91Z"/>
  </g>
</svg>