<?xml version="1.0" encoding="UTF-8"?>
<svg id="_レイヤー_1" xmlns="http://www.w3.org/2000/svg" version="1.1" viewBox="0 0 122.56 176.74">
  <!-- Generator: Adobe Illustrator 29.7.1, SVG Export Plug-In . SVG Version: 2.1.1 Build 8)  -->
  <defs>
    <style>
      .st0 {
        fill: #fff;
      }

      .st1 {
        fill: #254624;
      }

      .st2 {
        display: none;
      }
    </style>
  </defs>
  <g id="_着彩_x3000_人_xFF08_白_xFF09_" class="st2">
    <polyline class="st0" points="-166.62 105.16 -166.31 107.1 -164.24 107.67 -162.71 106.97 -161.62 106.42 -161.62 104.79 -167 105.35"/>
    <polygon class="st0" points="-149.93 105.98 -151.18 107.41 -151.5 109.16 -151.18 109.91 -149.18 110.24 -148.31 109.29 -148 107.41 -149.93 105.98"/>
    <polygon class="st0" points="-152.04 126.29 -149.75 126.66 -150.56 130.66 -151.18 129.91 -152.04 126.29"/>
    <polygon class="st0" points="-148.62 126.79 -147.31 126.79 -146.93 129.48 -148 129.48 -148.62 126.79"/>
    <polygon class="st0" points="-29.02 125.85 -28.6 124.14 -27.68 123.81 -27.02 123.81 -26.68 125.48 -28.14 126.02 -29.02 125.85"/>
    <polygon class="st0" points="-19.68 103.78 -20.18 105.56 -19.68 106.48 -18.39 106.73 -16.97 104.58 -19.68 103.78"/>
    <polygon class="st0" points="56.25 115.86 56.57 117.74 57.38 118.54 59.37 119.23 60.32 118.48 60.69 115.39 56.25 115.86"/>
    <polygon class="st0" points="70.88 114.55 69.57 116.57 69.57 117.44 70.88 118.16 72.6 118.41 73.57 117.74 73.94 115.86 70.88 114.55"/>
    <polygon class="st0" points="66.02 121.54 65.72 122.55 66.75 123.1 67.82 121.54 67.07 121.54 66.02 121.54"/>
    <polygon class="st0" points="140.29 106.57 140.29 108.6 140.91 108.79 141.94 108.79 142.63 108.29 142.63 106.85 140.29 106.57"/>
    <polygon class="st0" points="149.6 106.85 149.16 109.04 149.6 109.45 150.41 109.45 151.35 107.95 149.6 106.85"/>
    <polygon class="st0" points="206.91 104.01 205.88 104.48 206.39 105.95 207.75 105.29 206.91 104.01"/>
    <polygon class="st0" points="60.43 19.52 63.19 19.87 62.36 22.52 61.2 22.2 60.43 19.52"/>
    <polygon class="st0" points="56.44 22.02 57.78 22.02 58.64 24.21 59.46 23.15 59.92 22.69 60.69 22.7 61.81 23.51 63.19 22.77 64.28 23.11 65.03 24.21 65.14 25.21 65.14 27.1 64.72 27.33 58.86 27.52 58.69 25.21 57.44 25.6 56.44 24.77 56.44 23.15 56.44 22.02"/>
    <polygon class="st0" points="-167 108.39 -163.53 113.02 -164.31 115.14 -160.52 117.89 -161.56 119.15 -165.34 115.55 -166.14 119.87 -171.81 119.87 -171.06 112.98 -169.68 110.42 -167 108.39"/>
    <polygon class="st0" points="-170.68 119.87 -167.65 120.98 -168.15 130.66 -170.25 130.66 -170.68 119.87"/>
    <polyline class="st0" points="-150.01 111.13 -153.43 115.52 -151.1 115.91 -153.43 125.7 -146.93 125.7 -147.53 116.75 -144.56 119.35 -144.24 118.82 -148.23 110.89 -150.43 111.03"/>
    <polyline class="st0" points="-144.8 123.4 -145.08 125.69 -143.31 126.98 -141.26 126.24 -140.68 122.35 -145.3 122.63"/>
    <polygon class="st0" points="-75.62 106.05 -80.93 106.05 -80.93 108.39 -78.28 110.55 -75.53 112.01 -72.88 111.68 -71.06 111.39 -69.56 109.34 -69.56 106.05 -73.78 109.61 -75.62 106.05"/>
    <polygon class="st0" points="-75.54 103.78 -75.14 102.65 -72.59 107.86 -74.06 108.01 -75.54 103.78"/>
    <polygon class="st0" points="-77.68 112.01 -75.95 112.92 -72.9 113.46 -71.96 121.36 -78.93 121.36 -77.68 112.01"/>
    <polyline class="st0" points="-29 126.91 -26.06 126.02 -26.06 131.6 -29 131.6 -29.02 126.6"/>
    <path class="st0" d="M-19.68,117.35c.46.24,8.84-2.43,8.84-2.43v3.01l-.99,2.65-1.84,1.65-3.56-.29-2.03-1.04-.42-3.55Z"/>
    <polygon class="st0" points="-20.91 108.01 -18.58 107.52 -16.97 108.9 -15.26 110.13 -15.26 115.43 -20.18 117.35 -20.02 120.13 -18.35 121.36 -16.99 122.96 -16.97 124.52 -20.91 124.52 -20.91 113.85 -20.91 108.01"/>
    <polygon class="st0" points="57.89 119.92 60.32 122.32 61.25 120.41 62.82 122.04 63.82 123.85 63.82 126.79 63.57 128.03 59.88 127.27 58.06 127.56 56.25 128.03 56.43 123.98 57.63 120.79 57.89 119.92"/>
    <polygon class="st0" points="56.25 128.03 59.08 127.4 60.61 127.59 62.51 127.72 63.82 129.48 64.19 131.41 64.19 133.91 63.25 134.35 62.51 131.79 62.5 128.79 58.47 128.43 57.09 129.88 56.25 132.04 55.5 134.85 54.1 134.6 54.1 132.1 54.69 129.79 56.25 128.03"/>
    <polygon class="st0" points="70.5 128.03 74.82 128.35 76.44 129.48 77.5 131.13 77 134.1 76 134.85 75.82 130.79 73.5 129.6 71.25 129.79 70.5 130.48 70.13 134.85 67.82 134.85 68.07 131.44 68.88 129.66 69.19 128.79 70.5 128.03"/>
    <polygon class="st0" points="75.13 119.23 71.25 119.23 70 121.54 69.57 122.66 67.82 121.79 66.75 123.1 70.56 125.66 70.54 127.69 74.82 128.35 76.51 126.57 77.97 122.68 76.47 120.12 75.13 119.23"/>
    <polygon class="st0" points="58.47 119.23 60.24 119.9 61.13 119.92 59.88 122.04 58.16 120.19 58.47 119.23"/>
    <polyline class="st0" points="56.25 121.54 57.16 122.04 56.71 123.98 54.75 127.27 53.85 126.66 56.25 121.79"/>
    <polygon class="st0" points="139.63 109.79 143.07 109.45 143.69 115.86 143 120.41 138.13 120.79 137.88 116.65 139.63 109.79"/>
    <path class="st0" d="M151.35,116.56l5.28-1.45.87,2.25s-.05,3.47-.5,3.42-2.58,1.15-2.58,1.15c0,0-1.1-.1-1.38-.39-.27-.29-1.48-1.94-1.7-2.19s0-2.79,0-2.79h.01Z"/>
    <path class="st0" d="M149.16,120.04h1.72l3.5,3,.44,2-1.78,1.23s-2.16.04-2.79,0c-.62-.04-2.34-1.1-2.34-1.1l1.25-5.12h0Z"/>
    <path class="st0" d="M205.68,107.47l3.07.32,3.19,5.44-1.06,3.17h-1.98l.48,3.26s-1.81.19-2,0-1.7-.81-1.7-.81v-11.38h0Z"/>
    <polygon class="st0" points="206.44 119.75 209.44 120.85 209.44 123.6 208.81 126.48 209.51 130.54 209.51 131.29 207.98 131.29 206.82 132.4 205.68 131.54 204.69 125.79 206.44 119.75"/>
    <path class="st0" d="M188.94,122.98"/>
    <polygon class="st0" points="193.25 130.91 194.82 130.48 195.44 132.1 197.19 133.29 200.13 133.29 200.63 135.1 197.75 135.1 195.19 135.1 194.69 132.79 192.63 132.4 193.25 130.91"/>
    <polygon class="st0" points="-170.31 130.98 -170.31 132.1 -167.81 132.58 -166.75 131.74 -166.17 132.23 -165.75 130.66 -166.51 130.3 -167.37 131.04 -170.31 130.98"/>
    <polygon class="st0" points="-165.75 108.11 -163.56 108.66 -163.56 111.36 -164.65 110.8 -165.75 109.48 -165.75 108.11"/>
    <polygon class="st0" points="-131.47 125.7 -130.71 126.1 -129.97 126.35 -128.12 128.13 -130.48 128.13 -130.71 130.35 -132.06 130.91 -133.78 130.91 -134.42 132.29 -136.09 132.29 -136.68 130.41 -135.7 128.6 -134.06 127.91 -133.12 128.13 -132.4 127.23 -131.47 125.7"/>
  </g>
  <path class="st1" d="M-18.03,30.72c-.33-.64-.05-1.08.7-.89,1.02.25,1.87,1.09,1.87,1.67,0,.55-.21,1.04-.89,1.96-1.88,2.54-4.94,6.22-9.73,8.58-.81.41-1.19-.63-.58-1.06,4.8-3.31,7.73-7.42,8.49-8.81.37-.68.38-.95.12-1.45h0ZM-16.46,40.29c.44.08,1.22.22,1.73.22s.75-.15.75-.79c0-1.39-.14-7.8-.17-10.75-2.42.36-5.16,1.07-6.65,1.48-.98.27-1.69.58-2.4.58-1.04,0-2.23-1.62-2.37-3.06-.05-.55.37-.75.73-.49.73.52,1.43.92,2.16.92,1.21,0,5.39-.66,8.53-1.14.01-1.4.03-2.95-.03-3.75-.05-.57-.23-.78-.83-1.05-.67-.3-.98-.51-.98-.79,0-.52.83-.91,1.55-.91,1.1,0,2.73.58,2.73,1.37,0,1.01-.51,1.78-.7,4.88.3-.05.58-.09.82-.12,1.29-.18,1.98-.6,2.45-.6,1.2,0,2.72.88,2.72,1.86,0,.68-.36.95-.94.95-.66,0-2.44-.34-3.88-.34-.42,0-.84.02-1.24.05-.06,2.88.03,6.81.13,8.93.06,1.36.28,2.75.28,3.59,0,1.32-1.15,2.72-2.07,2.72-.78,0-.7-1.26-2.67-2.84-.44-.35-.27-1.01.34-.91h0Z"/>
  <path class="st1" d="M-25.28,52.87c0-.55.47-.7.78-.46.7.54,1.11.83,1.98.83,2.13,0,9.15-1.1,10.53-1.36,1.17-.22,1.75-.66,2.4-.66.96,0,2.84,1.74,2.84,2.73,0,.72-1.38,1.33-2.16,1.88-.92.65-3.09,2.25-5.12,3.58-.07.17-.13.35-.2.55-1.89,5.71-5.33,10.82-9.52,13.45h0c-.73.46-1.19-.47-.58-1.04,4.37-4.02,7.5-9.93,7.92-12.92.18-1.27-1.02-1.45-1.02-1.99,0-.48.63-.83,1.22-.83.88,0,1.9.66,2.31,1.19,1.42-1.27,2.69-2.66,3.22-3.39.44-.61.42-1.07-.18-1.07s-5.56,1.07-8.37,1.87c-1.66.47-2.89,1.01-3.51,1.01s-1.74-.96-2.23-2.03c-.22-.49-.3-.86-.3-1.34h0Z"/>
  <path class="st1" d="M-24.91,84.17c2.1-.09,4.8,1.25,4.82,3.49,0,.77-.41,1.34-1.03,1.31-.51-.02-.82-.42-1.28-1.02-.78-1.02-1.82-1.9-2.79-2.74-.5-.43-.35-1.02.29-1.04ZM-7.11,81.41c.43-.66,1.32,0,.94.73-2.84,5.46-7.85,11.02-12.81,15.01-.86.69-1.67,1.37-2.43,1.37-1.14,0-2.84-1.52-3.16-3.27-.12-.65.42-1,.79-.77.53.34.98.77,1.47,1.03.54.29,1.15.27,2.06-.33,4.15-2.72,9.83-8.69,13.14-13.78h0ZM-21.23,79.83c-.51-.41-.37-1.02.26-1.05,2.02-.11,4.85,1.07,4.94,3.3.03.77-.4,1.35-1.02,1.35-.51,0-.84-.38-1.31-.97-.81-1.02-1.87-1.84-2.86-2.64h0Z"/>
  <path class="st1" d="M-22.36,107.38c.86.64,1.28.92,1.9.92,1.49,0,4.78-.71,5.94-1.04.73-.21,1.1-.8,1.61-.8.95,0,2.84,1.52,2.84,2.45,0,.7-1.07,1.27-1.58,2-.51.73-1.84,2.78-2.99,4.3,3.4,1.45,6.79,4.03,6.79,6.69,0,.95-.46,1.58-1.17,1.62-.51.03-.85-.26-1.14-.99-1.17-2.87-2.83-4.73-5.29-6.32-2.54,3-6.55,6.3-10.65,8.11-.82.36-1.16-.75-.45-1.16,4.73-2.74,10.75-8.56,13.02-13.78.18-.41.07-.6-.33-.54-.92.14-3.79,1.13-4.98,1.55-.54.19-1.32.5-1.94.5-.86,0-2.12-1.41-2.37-2.85-.14-.79.29-1.04.78-.67Z"/>
  <path class="st1" d="M-44.39,41.77c.65-1.15,1.52-2.52,1.99-2.52.62,0,2.79,2.2,2.79,3.08,0,.52-.53.84-1.63.84h-24.81c-.39,0-.65-.14-.65-.7,0-.52.27-.7.65-.7h8.41l.03-19.26h-8.29c-.39,0-.65-.14-.65-.7,0-.52.27-.7.65-.7h21.01c.65-1.15,1.49-2.52,1.96-2.52.62,0,2.79,2.2,2.79,3.08,0,.52-.53.84-1.63.84h-6.36c.03.07.03.1.03.18,0,.38-.3.66-.89.87v18.21h4.61ZM-62.82,32.34c-.39-1.08-.89-2.17-1.4-3.11-.36-.73.03-1.5.83-1.05,2.08,1.05,3.98,3.08,3.86,5.1-.03,1.08-.59,1.78-1.52,1.71-.89-.03-1.25-1.12-1.78-2.66ZM-59.93,15.25c-.42-.73-.09-1.5.8-1.19,1.81.66,3.68,2.06,3.68,3.91,0,1.12-.59,1.85-1.55,1.85-.86,0-1.22-.98-1.72-2.17-.36-.8-.77-1.64-1.22-2.41ZM-55.51,41.77h4.31l.03-19.26h-3.42c.03.07.03.1.03.18,0,.42-.3.7-.95.87v18.21ZM-50.84,19.51c.86-1.68,1.69-3.6,2.17-5.66.06-.31.21-.56.51-.49,1.1.28,3.03,1.43,3.06,2.03.03.56-.42.77-1.34.77-.8,1.36-2.05,2.73-3.42,4.09-.65.63-1.34.1-.98-.73ZM-41.12,29.33c.03.52-.51.7-1.43.63-.89,1.61-2.32,3.63-4.1,5.49-.68.7-1.4.14-.95-.77,1.19-2.24,2.17-4.75,2.85-7.27.06-.31.18-.56.53-.45,1.13.35,3.12,1.71,3.09,2.38Z"/>
  <path class="st1" d="M-51.47,59.79c2.26,6.5,7.01,10.66,11.8,12.58.77.31.71.94,0,1.22-.71.31-.92.59-1.25,1.15-.39.66-.8.84-1.61.35-3.51-2.17-7.4-6.5-9.57-12.9v1.89c0,2.55.12,13.45.12,14.92,0,.8-.48,1.22-1.46,1.22-.59,0-.95-.38-.95-1.05,0-1.57.27-11.67.27-14.47v-1.29c-2.29,4.86-6.69,10.41-12.09,13.21-.89.49-1.34-.45-.53-1.12,4.99-3.91,8.89-9.12,11.53-15.73h-10.73c-.39,0-.65-.14-.65-.7,0-.52.27-.7.65-.7h11.83c-.03-3.29-.12-6.99-.39-8.84-.06-.35.12-.52.42-.52,1.96,0,3.6.21,3.6,1.08,0,.59-.62,1.01-1.55,1.26-.03,1.26-.06,4.23-.06,7.02h7.19c.71-1.19,1.6-2.62,2.14-2.62.68,0,3,2.27,3,3.18,0,.52-.53.84-1.84.84h-9.87Z"/>
  <path class="st1" d="M-61.58,99.25c.38-.61.88-1.29,1.18-1.29.55,0,2.12,1.42,2.12,2.13,0,.45-.49.84-1.02,1.07-.03,1.71-.05,5.53,0,7.43.77,1.49,1.79,2.39,4.62,2.71,3.38.42,10,.23,14.23-.19.8-.1.77.84.08,1.03-.52.13-.6.39-.82.84-.22.52-.36.65-.96.71-3.16.23-9.56.36-13.52-.42-2.45-.55-3.66-1.97-4.45-4.01-1.15,1.45-2.45,3.01-3.49,4.33-.36,1-.77,1.07-1.13.49-.3-.49-.71-1.42-.85-2.07-.14-.42-.11-.58.36-.84,1.24-.68,2.83-1.75,4.07-2.75.03-1.81.06-6.11.06-7.88h-3.54c-.36,0-.6-.13-.6-.65,0-.49.25-.65.6-.65h3.08ZM-63.28,87.97c-.41-.68-.08-1.39.71-1.1,1.76.71,3.41,2.1,3.44,3.85,0,.97-.47,1.65-1.29,1.65-.77,0-1.07-.91-1.59-2.07-.38-.84-.85-1.65-1.26-2.33ZM-56.22,88.13c-.36,0-.6-.13-.6-.65,0-.49.25-.65.6-.65h11.1c.47-.52,1.04-1.07,1.35-1.03.52.03,2.12,1.78,2.06,2.75-.03.68-.93.55-1.57.58-1.02.71-2.61,1.87-4.07,2.94l.08.16c.22.48.22.94.03,1.29h3.16c.36-.52.77-1.03.93-1.03.66,0,2.28,1.71,2.28,2.33,0,.42-.52.74-1.1,1-.06,2.91,0,7.56-.06,11.44,0,1.94-1.15,2.75-2.23,2.75s-.41-1.2-1.87-1.78c-.55-.29-.47-1.07.06-1.07.19,0,1.02.13,1.43.13.6,0,.82-.29.88-1.07.03-.65.03-1.55.05-2.52h-4.56l.03,5.2c0,.71-.41.94-1.15.94-.44,0-.71-.29-.71-.87,0-.42.05-3.2.08-5.27h-4.29l.03,5.24c0,.71-.38,1.07-1.18,1.07-.47,0-.71-.32-.71-.91,0-2.81.25-12.57-.11-16.16-.03-.26.17-.45.41-.42.41.03,1.46.52,2.06,1h4.84c-.38-.42-.85-.94-1.4-1.45-.55-.48-1.15-1-1.73-1.42-.41-.26-.25-1,.33-.94,1.65.23,2.83.81,3.6,1.42.96-.94,1.92-1.87,2.86-3h-10.91ZM-54.21,94.82c-.03.61-.05,1.78-.08,3.01h4.29c0-1.1-.03-2.2-.11-3.01h-4.09ZM-49.98,102.42v-3.3h-4.31v3.3h4.31ZM-43.69,102.42v-3.3h-4.53l-.03,2.81v.48h4.56ZM-47.37,94.82c-.03.32-.3.55-.82.65,0,.45-.03,1.36-.03,2.36h4.53v-3.01h-3.68Z"/>
  <path class="st1" d="M-56.7,118.28c1.46.35,2.64,1.97,2.64,3.48,0,.67-.45,1.88-.85,3.18-.48,1.58-.93,3.32-.93,4.22,0,.69.22.69.42.05.97-3.13,2.26-6.11,4.43-6.1,2.26.02,4.71,2.62,4.71,8.15,0,7.75-3.65,12.83-10.8,14.5-1.2.28-1.45-.9-.32-1.35,6.26-2.5,8.85-6.27,8.85-13.17,0-3.89-1.06-6.35-2.73-6.35-1.96,0-3.53,5.24-3.53,8.32,0,1.5.39,2.62.39,3.39s-.23,1.22-.72,1.35c-.45.12-.99-.15-1.29-.67-.58-.99-.99-2.92-1.02-4.84-.05-3.18.87-7.83,1.03-9.61.13-1.49-.13-2.27-.83-3.81-.23-.51.02-.87.54-.75h0Z"/>
  <path class="st1" d="M-82.85,61.1c.67-1.11,1.58-2.43,2.06-2.43.61,0,2.94,2.12,2.94,2.97,0,.47-.55.81-1.76.81h-7.07c.94.37,1.91,1.05,1.94,1.48,0,.51-.42.67-1.37.71-.7,1.05-1.39,1.96-2.27,2.63-.09.07-.18.13-.27.17h6.31c.49-.67,1.06-1.38,1.27-1.38.76,0,2.79,1.92,2.79,2.56,0,.47-.67.88-1.36,1.15-.09,3.84-.03,10.11-.06,15.17,0,2.09-1.58,2.93-2.73,2.93s-.49-1.31-2.31-1.95c-.64-.24-.55-1.08.03-1.08.27,0,1.3.13,1.82.13.73,0,1.03-.3,1.09-1.18.09-1.75.06-5.06.06-7.48v-7.52h-7.37c.76.13,1.82.44,1.82.91,0,.37-.39.57-1.03.71-.03.24-.03,1.79-.03,1.99,0,.51.18.47,1.73.47,1.67,0,1.61-.2,1.88-.44.33-.37.48-.98.67-1.58.21-.71.97-.57.97.2-.06,1.55.42,1.55.42,2.16,0,1.05-1.3,1.52-3.97,1.52-3,0-3.55-.07-3.55-1.62,0-.74-.03-3.14-.06-3.78-.03-.3.03-.47.15-.54h-3.79c.91.13,1.79.51,1.79.98,0,.44-.36.67-1.15.78-.33,1.21-.85,2.29-1.61,3.1-.97,1.05-2.28,1.92-4.58,2.43-.67.24-1.12-.64-.3-1.11,1.67-.71,2.61-1.42,3.28-2.22.64-.74,1.06-1.89,1.27-3.37.03-.3.06-.47.18-.57h-4.61c-.21.13-.52.2-.82.27-.09,1.65-.09,6.98-.09,8.06l.03,9.74c0,.74-.42,1.11-1.36,1.11-.55,0-.82-.34-.82-.94,0-3.3.3-16.05-.12-20.16-.03-.24.18-.47.42-.47.42.03,1.64.51,2.43,1.05h10.77c-.21-.13-.27-.47-.09-.88.52-1.18,1.03-2.39,1.3-3.91,0-.07.03-.14.06-.2h-16.32c-.39,0-.67-.13-.67-.67,0-.51.27-.67.67-.67h11.71c0-1.11-.03-2.33-.09-3.17-.03-.34.15-.51.42-.51.52,0,3.28.1,3.28.98,0,.67-.64.94-1.58,1.15v1.55h7.64ZM-96.51,65.38c-.21-.54-.52-1.15-.79-1.68-.36-.78.06-1.48.97-1.01,1.43.71,2.82,1.69,2.67,3.1-.09.91-.7,1.52-1.61,1.38-.76-.07-.94-.94-1.24-1.79ZM-88.71,76.67c.36-.57.88-1.21,1.15-1.21.52,0,2.06,1.31,2.06,1.96,0,.34-.3.61-.7.81-.03,1.38,0,4.28,0,5.09,0,1.05-.42,1.28-1.24,1.28-.7,0-.88-.61-.88-1.15v-.47h-5.79v1.08c0,.71-.46,1.01-1.3,1.01-.52,0-.79-.3-.79-.88,0-1.92.15-5.66-.12-8.33-.03-.27.18-.47.46-.41.58.07,1.88.64,2.49,1.21h4.67ZM-88.28,81.63c0-1.18.03-2.63.03-3.61h-5.82c-.03.67-.06,2.16-.06,2.73v.88h5.85Z"/>
  <path class="st1" d="M-82.43,97.64c.67-1.11,1.55-2.43,2.03-2.43.64,0,2.94,2.09,2.94,2.97,0,.47-.55.81-1.76.81h-20.45c.06,2.7,0,5.12-.09,8.09-.15,5.02-.85,11.06-5.19,14.97-.7.71-1.46.03-.85-.84,2.64-3.88,3.76-7.75,3.82-14.97,0-2.9-.09-6.24-.27-9.3-.06-.54.15-.71.55-.64.52.1,1.85.74,2.55,1.35h7.1c.03-1.38,0-3.07-.09-4.11-.03-.34.15-.51.42-.51.52,0,3.58.1,3.58,1.01,0,.71-.67.98-1.61,1.21v2.39h7.31ZM-83.64,104.89c.67-1.11,1.55-2.43,2.06-2.43.64,0,2.85,2.12,2.85,2.97,0,.51-.64.81-1.7.81h-8.68v5.56h4.52c.45-.64,1-1.31,1.33-1.31.64,0,2.49,1.52,2.49,2.26,0,.47-.52.78-1.06,1.01-.09,2.43,0,7.01,0,8.26,0,1.05-.49,1.28-1.37,1.28-.73,0-.97-.61-.97-1.15v-1.38h-10.95v1.58c0,.71-.48,1.05-1.4,1.05-.58,0-.85-.34-.85-.91,0-2.26.18-8.39-.12-11.46-.03-.27.18-.47.42-.44.52.03,1.91.61,2.67,1.21h3.19c.06-3.71,0-9.54-.24-11.63-.03-.3.15-.47.42-.47.52,0,3.52.1,3.52.98,0,.74-.67,1.01-1.61,1.25v2.97h5.46ZM-84.13,119.42c0-2.16.03-4.96.03-6.27h-10.65c-.12.03-.21.03-.33.07-.03.88-.03,3.51-.03,4.11v2.09h10.98Z"/>
  <path class="st1" d="M-100.08,157.78c0,.74-.42,1.08-1.33,1.08-.55,0-.82-.34-.82-.94,0-1.92.18-9.74.06-14.02-.85,1.08-1.79,2.12-2.85,3.03-.73.57-1.33-.07-.79-.84,2.7-3.47,4.67-7.11,5.76-10.72.12-.34.27-.47.58-.37.94.34,2.7,1.45,2.67,2.09-.03.54-.58.64-1.46.51-.52,1.01-1.18,2.26-2.03,3.61.7.34,1.4.81,1.4,1.21,0,.44-.52.64-1.12.74-.09,1.35-.09,5.66-.09,6.64l.03,7.99ZM-105.21,136.11c2.28-2.22,4.25-4.85,5.34-7.45.15-.3.3-.47.61-.37.97.44,2.64,1.58,2.58,2.23-.06.54-.61.64-1.49.44-1.27,1.62-3.61,4.42-6.34,6.07-.79.51-1.33-.2-.7-.91ZM-90.92,152.62c1.97-.4,3.67-.84,5.13-1.25,1.27-.34,1.55.67.36,1.25-2.55,1.11-6.04,2.19-10.71,3.17-.09.71-.33,1.28-.82,1.28-.58,0-1.12-1.25-1.4-2.97-.03-.3.09-.4.33-.44,1.82-.17,3.49-.4,5.01-.64.03-1.31.03-3.2.03-5.02h-4.22c-.4,0-.67-.13-.67-.67,0-.51.27-.67.67-.67h4.22c0-1.92-.03-3.61-.12-4.35-.03-.34.15-.51.42-.51.52,0,3.22.13,3.22.94,0,.64-.58.88-1.46,1.11v2.8h1.7c.58-1.01,1.3-2.09,1.7-2.09.58,0,2.34,1.99,2.34,2.7.03.51-.58.74-1.3.74h-4.43v4.62ZM-81.4,138.7c.61-1.04,1.39-2.19,1.82-2.19.61,0,2.52,2.02,2.52,2.8.03.47-.61.74-1.46.74h-.42c-.12.34-.7.54-1.06.61-.06,3.94-.03,10.52-.03,15.44,0,1.65-1.03,2.6-2.28,2.6-.94,0-.79-.94-2.76-1.75-.7-.3-.58-1.18.03-1.15.7.1,1.55.17,1.88.17.67,0,1-.27,1.03-1.08.06-1.58.09-3.94.06-6.13,0-2.6-.06-7.11-.18-8.7h-2.64c.06.14.09.24.09.34,0,.47-.55.71-1.46.71h-11.44c-.39,0-.67-.13-.67-.67,0-.51.27-.67.67-.67h4.67c0-1.18.03-2.93.03-4.65h-3.61c-.39,0-.67-.13-.67-.67,0-.51.27-.67.67-.67h3.61c-.03-1.96-.06-3.71-.12-4.45-.03-.34.15-.51.42-.51.52,0,3.22.13,3.22.94,0,.64-.58.88-1.46,1.11v2.9h1.09c.58-.91,1.24-1.92,1.64-1.92.55,0,2.37,1.85,2.37,2.56,0,.47-.55.71-1.36.71h-3.73v4.65h1.97c.58-.94,1.27-1.99,1.67-1.99.33,0,1.09.64,1.7,1.28.09-.24.3-.34.61-.34h3.58ZM-84.86,132.63c-.39,0-.67-.14-.67-.67,0-.51.27-.67.67-.67h3.28c.61-1.05,1.36-2.19,1.82-2.19.58,0,2.52,2.02,2.55,2.8,0,.47-.64.74-1.49.74h-6.16Z"/>
  <path class="st1" d="M100.08,29.42c1.07.26,1.95,1.13,1.95,1.74,0,.58-.22,1.09-.92,2.05-1.96,2.65-5.15,6.49-10.14,8.95-.84.42-1.24-.66-.6-1.11,5.01-3.45,8.07-7.73,8.86-9.19.39-.71.4-.99.13-1.51-.34-.67-.05-1.12.73-.93ZM102.8,40.57c.54,0,.78-.16.78-.82,0-1.45-.15-8.13-.18-11.21-2.52.38-5.39,1.12-6.94,1.55-1.02.28-1.76.6-2.5.6-1.09,0-2.33-1.69-2.47-3.2-.05-.58.38-.78.76-.51.76.54,1.5.96,2.26.96,1.26,0,5.62-.69,8.89-1.19.01-1.46.03-3.08-.03-3.91-.05-.59-.24-.82-.87-1.1-.7-.32-1.02-.53-1.02-.82,0-.54.87-.95,1.62-.95,1.15,0,2.85.6,2.85,1.42,0,1.05-.53,1.86-.73,5.08.32-.05.6-.09.86-.13,1.35-.19,2.07-.63,2.55-.63,1.25,0,2.84.92,2.84,1.94,0,.71-.37.99-.98.99-.69,0-2.55-.35-4.05-.35-.44,0-.88.02-1.29.05-.06,3,.03,7.11.13,9.31.06,1.42.3,2.86.3,3.75,0,1.37-1.2,2.84-2.16,2.84-.81,0-.73-1.31-2.78-2.96-.46-.37-.28-1.05.36-.94.46.08,1.27.23,1.81.23Z"/>
  <path class="st1" d="M91.79,53.46c0-.58.49-.73.82-.48.73.57,1.16.86,2.06.86,2.22,0,9.54-1.14,10.98-1.42,1.22-.23,1.82-.69,2.5-.69,1,0,2.96,1.81,2.96,2.84,0,.75-1.44,1.39-2.25,1.96-.96.68-3.23,2.34-5.34,3.74-.07.17-.14.36-.21.58-1.97,5.95-5.56,11.29-9.92,14.03-.76.48-1.24-.49-.61-1.08,4.56-4.2,7.82-10.35,8.25-13.47.18-1.33-1.06-1.52-1.06-2.08,0-.5.65-.86,1.28-.86.92,0,1.99.69,2.41,1.24,1.48-1.33,2.8-2.78,3.36-3.54.46-.64.43-1.12-.19-1.12s-5.8,1.12-8.73,1.95c-1.73.49-3.01,1.06-3.67,1.06s-1.82-1-2.32-2.11c-.23-.51-.31-.9-.31-1.4h0Z"/>
  <path class="st1" d="M91.88,87.18c-.52-.45-.36-1.06.3-1.09,2.19-.09,5,1.31,5.02,3.64,0,.8-.43,1.4-1.07,1.37-.54-.02-.85-.44-1.34-1.07-.82-1.06-1.9-1.98-2.91-2.86h0ZM110.74,83.22c.45-.69,1.38,0,.98.76-2.96,5.69-8.19,11.49-13.36,15.65-.89.72-1.74,1.43-2.53,1.43-1.19,0-2.96-1.58-3.3-3.42-.13-.68.44-1.05.83-.8.55.35,1.02.8,1.53,1.08.57.31,1.19.28,2.15-.34,4.33-2.83,10.25-9.07,13.7-14.37h0ZM96.28,80.48c2.11-.12,5.06,1.12,5.15,3.45.03.8-.41,1.41-1.06,1.41-.54,0-.88-.39-1.37-1.01-.85-1.06-1.95-1.92-2.99-2.75-.53-.43-.39-1.06.27-1.1Z"/>
  <path class="st1" d="M94.83,110.3c.9.67,1.33.96,1.98.96,1.55,0,4.98-.74,6.2-1.08.76-.22,1.15-.83,1.68-.83.99,0,2.96,1.59,2.96,2.56,0,.73-1.12,1.33-1.65,2.08-.53.76-1.92,2.9-3.12,4.49,3.54,1.51,7.08,4.2,7.08,6.98,0,.99-.48,1.65-1.22,1.69-.53.03-.88-.27-1.19-1.03-1.22-3-2.95-4.93-5.51-6.59-2.64,3.13-6.83,6.57-11.11,8.46-.86.38-1.21-.78-.47-1.21,4.93-2.85,11.21-8.92,13.58-14.37.19-.43.08-.63-.34-.56-.96.15-3.95,1.18-5.2,1.62-.57.2-1.38.52-2.02.52-.9,0-2.21-1.47-2.47-2.97-.15-.83.3-1.09.82-.7Z"/>
  <path class="st1" d="M72.26,39.13c.64-1.07,1.48-2.33,1.95-2.33.61,0,2.73,2.04,2.73,2.84,0,.48-.52.78-1.6.78h-24.29c-.38,0-.64-.13-.64-.65,0-.48.26-.65.64-.65h8.23l.03-17.81h-8.11c-.38,0-.64-.13-.64-.65,0-.48.26-.65.64-.65h20.56c.64-1.07,1.45-2.33,1.92-2.33.61,0,2.73,2.04,2.73,2.84,0,.48-.52.78-1.6.78h-6.22c.03.06.03.1.03.16,0,.36-.29.61-.87.81v16.84h4.51ZM54.23,30.41c-.38-1-.87-2-1.37-2.88-.35-.68.03-1.39.81-.97,2.04.97,3.9,2.84,3.78,4.72-.03,1-.58,1.65-1.48,1.58-.87-.03-1.22-1.03-1.74-2.46ZM57.05,14.6c-.41-.68-.09-1.39.79-1.1,1.77.61,3.61,1.91,3.61,3.62,0,1.03-.58,1.71-1.51,1.71-.84,0-1.19-.9-1.69-2-.35-.74-.76-1.52-1.19-2.23ZM61.39,39.13h4.22l.03-17.81h-3.34c.03.06.03.1.03.16,0,.39-.29.65-.93.81v16.84ZM65.95,18.55c.84-1.55,1.66-3.33,2.12-5.24.06-.29.2-.52.5-.45,1.08.26,2.97,1.32,3,1.87.03.52-.41.71-1.31.71-.79,1.26-2.01,2.52-3.34,3.78-.64.58-1.31.1-.96-.68ZM75.46,27.63c.03.48-.49.65-1.4.58-.87,1.49-2.27,3.36-4.01,5.07-.67.65-1.37.13-.93-.71,1.16-2.07,2.12-4.4,2.79-6.72.06-.29.17-.52.52-.42,1.1.32,3.05,1.58,3.02,2.2Z"/>
  <path class="st1" d="M65.34,57.32c2.21,6.01,6.86,9.86,11.55,11.63.76.29.7.87,0,1.13-.7.29-.9.55-1.22,1.07-.38.61-.79.78-1.57.32-3.43-2-7.24-6.01-9.36-11.93v1.75c0,2.36.12,12.44.12,13.8,0,.74-.47,1.13-1.43,1.13-.58,0-.93-.36-.93-.97,0-1.45.26-10.79.26-13.38v-1.2c-2.24,4.49-6.54,9.63-11.84,12.22-.87.45-1.31-.42-.52-1.03,4.89-3.62,8.7-8.44,11.29-14.54h-10.5c-.38,0-.64-.13-.64-.65,0-.48.26-.65.64-.65h11.58c-.03-3.04-.12-6.46-.38-8.18-.06-.32.12-.48.41-.48,1.92,0,3.52.19,3.52,1,0,.55-.61.94-1.51,1.16-.03,1.16-.06,3.91-.06,6.5h7.04c.7-1.1,1.57-2.42,2.09-2.42.67,0,2.94,2.1,2.94,2.94,0,.48-.52.78-1.8.78h-9.66Z"/>
  <path class="st1" d="M54.2,94.98c.41-.61.93-1.29,1.25-1.29.58,0,2.24,1.42,2.24,2.13,0,.45-.52.84-1.08,1.07-.03,1.71-.06,5.53,0,7.43.81,1.49,1.89,2.39,4.89,2.71,3.58.42,10.59.23,15.07-.19.84-.1.81.84.09,1.03-.55.13-.64.39-.87.84-.23.52-.38.65-1.02.71-3.34.23-10.12.36-14.31-.42-2.59-.55-3.87-1.97-4.71-4.01-1.22,1.46-2.59,3.01-3.69,4.33-.38,1-.81,1.07-1.19.48-.32-.48-.76-1.42-.9-2.07-.15-.42-.12-.58.38-.84,1.31-.68,3-1.75,4.3-2.75.03-1.81.06-6.11.06-7.89h-3.75c-.38,0-.64-.13-.64-.65,0-.48.26-.65.64-.65h3.26ZM52.4,83.7c-.44-.68-.09-1.39.76-1.1,1.86.71,3.61,2.1,3.64,3.85,0,.97-.49,1.65-1.37,1.65-.81,0-1.13-.9-1.69-2.07-.41-.84-.9-1.65-1.34-2.33ZM59.87,83.86c-.38,0-.64-.13-.64-.65,0-.48.26-.65.64-.65h11.75c.49-.52,1.1-1.07,1.42-1.03.55.03,2.24,1.78,2.18,2.75-.03.68-.99.55-1.66.58-1.08.71-2.76,1.87-4.3,2.94l.09.16c.23.48.23.94.03,1.29h3.34c.38-.52.81-1.03.99-1.03.7,0,2.41,1.71,2.41,2.33,0,.42-.55.74-1.16,1-.06,2.91,0,7.56-.06,11.44,0,1.94-1.22,2.75-2.36,2.75s-.44-1.2-1.98-1.78c-.58-.29-.5-1.07.06-1.07.2,0,1.08.13,1.51.13.64,0,.87-.29.93-1.07.03-.65.03-1.55.06-2.52h-4.83l.03,5.2c0,.71-.44.94-1.22.94-.47,0-.76-.29-.76-.87,0-.42.06-3.2.09-5.27h-4.54l.03,5.24c0,.71-.41,1.07-1.25,1.07-.49,0-.76-.32-.76-.91,0-2.81.26-12.57-.12-16.16-.03-.26.17-.45.44-.42.44.03,1.54.52,2.18,1h5.12c-.41-.42-.9-.94-1.48-1.45-.58-.49-1.22-1-1.83-1.42-.44-.26-.26-1,.35-.94,1.75.23,3,.81,3.81,1.42,1.02-.94,2.04-1.88,3.02-3.01h-11.55ZM62,90.55c-.03.61-.06,1.78-.09,3.01h4.54c0-1.1-.03-2.2-.12-3.01h-4.33ZM66.48,98.15v-3.3h-4.57v3.3h4.57ZM73.14,98.15v-3.3h-4.8l-.03,2.81v.49h4.83ZM69.24,90.55c-.03.32-.32.55-.87.65,0,.45-.03,1.36-.03,2.36h4.8v-3.01h-3.9Z"/>
  <path class="st1" d="M59.83,114.01c1.37.35,2.49,1.97,2.49,3.49,0,.67-.42,1.88-.8,3.18-.46,1.58-.88,3.32-.88,4.22,0,.69.21.69.39.05.91-3.13,2.13-6.11,4.17-6.1,2.13.02,4.44,2.62,4.44,8.15,0,7.75-3.43,12.83-10.17,14.5-1.13.28-1.36-.9-.3-1.35,5.89-2.5,8.33-6.27,8.33-13.17,0-3.89-1-6.35-2.57-6.35-1.84,0-3.32,5.24-3.32,8.32,0,1.5.37,2.62.37,3.39s-.21,1.22-.67,1.35c-.43.12-.93-.15-1.22-.67-.55-.99-.93-2.92-.96-4.84-.04-3.18.82-7.83.97-9.61.13-1.49-.12-2.27-.78-3.81-.22-.51.02-.87.51-.75h0Z"/>
  <g>
    <path class="st1" d="M33.78,65.44c.64-1.07,1.51-2.33,1.98-2.33.58,0,2.82,2.04,2.82,2.84,0,.45-.52.78-1.69.78h-6.78c.9.36,1.83,1,1.86,1.42,0,.48-.41.65-1.31.68-.67,1-1.34,1.87-2.18,2.52-.09.06-.17.13-.26.16h6.05c.47-.65,1.02-1.33,1.22-1.33.73,0,2.68,1.84,2.68,2.46,0,.45-.64.84-1.31,1.1-.09,3.68-.03,9.7-.06,14.54,0,2-1.51,2.81-2.62,2.81s-.47-1.26-2.21-1.87c-.61-.23-.52-1.03.03-1.03.26,0,1.25.13,1.75.13.7,0,.99-.29,1.05-1.13.09-1.68.06-4.85.06-7.17v-7.21h-7.07c.73.13,1.75.42,1.75.87,0,.36-.38.55-.99.68-.03.23-.03,1.71-.03,1.91,0,.48.17.45,1.66.45,1.6,0,1.54-.19,1.8-.42.32-.36.47-.94.64-1.52.2-.68.93-.55.93.19-.06,1.49.41,1.49.41,2.07,0,1-1.25,1.45-3.81,1.45-2.88,0-3.4-.06-3.4-1.55,0-.71-.03-3.01-.06-3.62-.03-.29.03-.45.15-.52h-3.64c.87.13,1.72.48,1.72.94,0,.42-.35.65-1.1.74-.32,1.16-.81,2.2-1.54,2.97-.93,1-2.18,1.84-4.39,2.33-.64.23-1.08-.61-.29-1.07,1.6-.68,2.5-1.36,3.14-2.13.61-.71,1.02-1.81,1.22-3.23.03-.29.06-.45.17-.55h-4.42c-.2.13-.49.19-.79.26-.09,1.58-.09,6.69-.09,7.72l.03,9.34c0,.71-.41,1.07-1.31,1.07-.52,0-.79-.32-.79-.9,0-3.17.29-15.38-.12-19.33-.03-.23.17-.45.41-.45.41.03,1.57.48,2.33,1h10.32c-.2-.13-.26-.45-.09-.84.49-1.13.99-2.29,1.25-3.75,0-.06.03-.13.06-.19h-15.65c-.38,0-.64-.13-.64-.65,0-.48.26-.65.64-.65h11.23c0-1.07-.03-2.23-.09-3.04-.03-.32.15-.48.41-.48.49,0,3.14.1,3.14.94,0,.65-.61.91-1.51,1.1v1.49h7.33ZM20.69,69.54c-.2-.52-.49-1.1-.76-1.62-.35-.74.06-1.42.93-.97,1.37.68,2.7,1.62,2.56,2.97-.09.87-.67,1.45-1.54,1.32-.73-.06-.9-.9-1.19-1.71ZM28.16,80.37c.35-.55.84-1.16,1.1-1.16.49,0,1.98,1.26,1.98,1.87,0,.32-.29.58-.67.78-.03,1.32,0,4.1,0,4.88,0,1-.41,1.23-1.19,1.23-.67,0-.84-.58-.84-1.1v-.45h-5.55v1.03c0,.68-.44.97-1.25.97-.49,0-.76-.29-.76-.84,0-1.84.15-5.43-.12-7.98-.03-.26.17-.45.44-.39.55.06,1.8.61,2.38,1.16h4.48ZM28.57,85.12c0-1.13.03-2.52.03-3.46h-5.58c-.03.65-.06,2.07-.06,2.62v.84h5.61Z"/>
    <path class="st1" d="M34.19,100.48c.64-1.07,1.48-2.33,1.95-2.33.61,0,2.82,2,2.82,2.84,0,.45-.52.78-1.69.78h-19.6c.06,2.59,0,4.91-.09,7.76-.15,4.82-.81,10.6-4.97,14.35-.67.68-1.4.03-.81-.81,2.53-3.72,3.61-7.43,3.66-14.35,0-2.78-.09-5.98-.26-8.92-.06-.52.15-.68.52-.61.49.1,1.77.71,2.44,1.29h6.81c.03-1.33,0-2.94-.09-3.94-.03-.32.15-.48.41-.48.49,0,3.43.1,3.43.97,0,.68-.64.94-1.54,1.16v2.29h7.01ZM33.02,107.42c.64-1.07,1.48-2.33,1.98-2.33.61,0,2.73,2.04,2.73,2.84,0,.48-.61.78-1.63.78h-8.32v5.33h4.33c.44-.61.96-1.26,1.28-1.26.61,0,2.38,1.45,2.38,2.17,0,.45-.49.74-1.02.97-.09,2.33,0,6.72,0,7.92,0,1-.47,1.23-1.31,1.23-.7,0-.93-.58-.93-1.1v-1.33h-10.5v1.52c0,.68-.47,1-1.34,1-.55,0-.81-.32-.81-.87,0-2.17.17-8.05-.12-10.99-.03-.26.17-.45.41-.42.49.03,1.83.58,2.56,1.16h3.05c.06-3.56,0-9.15-.23-11.15-.03-.29.15-.45.41-.45.49,0,3.37.1,3.37.94,0,.71-.64.97-1.54,1.2v2.84h5.23ZM32.56,121.35c0-2.07.03-4.75.03-6.01h-10.21c-.12.03-.2.03-.32.06-.03.84-.03,3.36-.03,3.94v2h10.53Z"/>
    <path class="st1" d="M17.26,158.13c0,.71-.41,1.03-1.28,1.03-.52,0-.79-.32-.79-.91,0-1.84.17-9.34.06-13.44-.81,1.03-1.72,2.04-2.73,2.91-.7.55-1.28-.06-.76-.81,2.59-3.33,4.48-6.82,5.53-10.28.12-.32.26-.45.55-.36.9.32,2.59,1.39,2.56,2-.03.52-.55.61-1.4.49-.49.97-1.13,2.17-1.95,3.46.67.32,1.34.78,1.34,1.16,0,.42-.49.61-1.08.71-.09,1.29-.09,5.43-.09,6.37l.03,7.66ZM12.34,137.35c2.18-2.13,4.07-4.65,5.12-7.14.15-.29.29-.45.58-.36.93.42,2.53,1.52,2.47,2.13-.06.52-.58.61-1.42.42-1.22,1.55-3.46,4.23-6.08,5.82-.76.49-1.28-.19-.67-.87ZM26.04,153.19c1.89-.39,3.52-.81,4.92-1.2,1.22-.32,1.48.65.35,1.2-2.44,1.07-5.79,2.1-10.27,3.04-.09.68-.32,1.23-.79,1.23-.55,0-1.08-1.2-1.34-2.84-.03-.29.09-.39.32-.42,1.75-.16,3.34-.39,4.8-.61.03-1.26.03-3.07.03-4.82h-4.04c-.38,0-.64-.13-.64-.65,0-.48.26-.65.64-.65h4.04c0-1.84-.03-3.46-.12-4.17-.03-.32.15-.48.41-.48.49,0,3.08.13,3.08.9,0,.61-.55.84-1.4,1.07v2.68h1.63c.55-.97,1.25-2,1.63-2,.55,0,2.24,1.91,2.24,2.59.03.48-.55.71-1.25.71h-4.25v4.43ZM35.17,139.84c.58-1,1.34-2.1,1.74-2.1.58,0,2.41,1.94,2.41,2.68.03.45-.58.71-1.4.71h-.41c-.12.32-.67.52-1.02.58-.06,3.78-.03,10.08-.03,14.8,0,1.58-.99,2.49-2.18,2.49-.9,0-.76-.91-2.65-1.68-.67-.29-.55-1.13.03-1.1.67.1,1.48.16,1.8.16.64,0,.96-.26.99-1.03.06-1.52.09-3.78.06-5.88,0-2.49-.06-6.82-.17-8.34h-2.53c.06.13.09.23.09.32,0,.45-.52.68-1.4.68h-10.96c-.38,0-.64-.13-.64-.65,0-.49.26-.65.64-.65h4.48c0-1.13.03-2.81.03-4.46h-3.46c-.38,0-.64-.13-.64-.65,0-.48.26-.65.64-.65h3.46c-.03-1.87-.06-3.55-.12-4.27-.03-.32.15-.49.41-.49.49,0,3.08.13,3.08.91,0,.61-.55.84-1.4,1.07v2.78h1.05c.55-.87,1.19-1.84,1.57-1.84.52,0,2.27,1.78,2.27,2.46,0,.45-.52.68-1.31.68h-3.58v4.46h1.89c.55-.91,1.22-1.91,1.6-1.91.32,0,1.05.61,1.63,1.23.09-.23.29-.32.58-.32h3.43ZM31.86,134.02c-.38,0-.64-.13-.64-.65,0-.48.26-.65.64-.65h3.14c.58-1,1.31-2.1,1.75-2.1.55,0,2.41,1.94,2.44,2.68,0,.45-.61.71-1.42.71h-5.9Z"/>
  </g>
</svg>