<?xml version="1.0" encoding="UTF-8"?>
<svg id="_レイヤー_1" data-name="レイヤー_1" xmlns="http://www.w3.org/2000/svg" version="1.1" viewBox="0 0 122.56 142.29">
  <!-- Generator: Adobe Illustrator 29.7.1, SVG Export Plug-In . SVG Version: 2.1.1 Build 8)  -->
  <defs>
    <style>
      .st0 {
        fill: #fff;
      }

      .st1 {
        display: none;
      }

      .st2 {
        fill: #25471d;
      }
    </style>
  </defs>
  <g id="_着彩_x3000_人_xFF08_白_xFF09_" class="st1">
    <polyline class="st0" points="-166.62 105.16 -166.31 107.1 -164.24 107.67 -162.71 106.97 -161.62 106.42 -161.62 104.79 -167 105.35"/>
    <polygon class="st0" points="-149.93 105.98 -151.18 107.41 -151.5 109.16 -151.18 109.91 -149.18 110.24 -148.31 109.29 -148 107.41 -149.93 105.98"/>
    <polygon class="st0" points="-152.04 126.29 -149.75 126.66 -150.56 130.66 -151.18 129.91 -152.04 126.29"/>
    <polygon class="st0" points="-148.62 126.79 -147.31 126.79 -146.93 129.48 -148 129.48 -148.62 126.79"/>
    <polygon class="st0" points="-29.02 125.85 -28.6 124.14 -27.68 123.81 -27.02 123.81 -26.68 125.48 -28.14 126.02 -29.02 125.85"/>
    <polygon class="st0" points="-19.68 103.78 -20.18 105.56 -19.68 106.48 -18.39 106.73 -16.97 104.58 -19.68 103.78"/>
    <polygon class="st0" points="56.25 115.86 56.57 117.74 57.38 118.54 59.37 119.23 60.32 118.48 60.69 115.39 56.25 115.86"/>
    <polygon class="st0" points="70.88 114.55 69.57 116.57 69.57 117.44 70.88 118.16 72.6 118.41 73.57 117.74 73.94 115.86 70.88 114.55"/>
    <polygon class="st0" points="66.02 121.54 65.72 122.55 66.75 123.1 67.82 121.54 67.07 121.54 66.02 121.54"/>
    <polygon class="st0" points="140.29 106.57 140.29 108.6 140.91 108.79 141.94 108.79 142.63 108.29 142.63 106.85 140.29 106.57"/>
    <polygon class="st0" points="149.6 106.85 149.16 109.04 149.6 109.45 150.41 109.45 151.35 107.95 149.6 106.85"/>
    <polygon class="st0" points="206.91 104.01 205.88 104.48 206.39 105.95 207.75 105.29 206.91 104.01"/>
    <polygon class="st0" points="60.43 19.52 63.19 19.87 62.36 22.52 61.2 22.2 60.43 19.52"/>
    <polygon class="st0" points="56.44 22.02 57.78 22.02 58.64 24.21 59.46 23.15 59.92 22.69 60.69 22.7 61.81 23.51 63.19 22.77 64.28 23.11 65.03 24.21 65.14 25.21 65.14 27.1 64.72 27.33 58.86 27.52 58.69 25.21 57.44 25.6 56.44 24.77 56.44 23.15 56.44 22.02"/>
    <polygon class="st0" points="-167 108.39 -163.53 113.02 -164.31 115.14 -160.52 117.89 -161.56 119.15 -165.34 115.55 -166.14 119.87 -171.81 119.87 -171.06 112.98 -169.68 110.42 -167 108.39"/>
    <polygon class="st0" points="-170.68 119.87 -167.65 120.98 -168.15 130.66 -170.25 130.66 -170.68 119.87"/>
    <polyline class="st0" points="-150.01 111.13 -153.43 115.52 -151.1 115.91 -153.43 125.7 -146.93 125.7 -147.53 116.75 -144.56 119.35 -144.24 118.82 -148.23 110.89 -150.43 111.03"/>
    <polyline class="st0" points="-144.8 123.4 -145.08 125.69 -143.31 126.98 -141.26 126.24 -140.68 122.35 -145.3 122.63"/>
    <polygon class="st0" points="-75.62 106.05 -80.93 106.05 -80.93 108.39 -78.28 110.55 -75.53 112.01 -72.88 111.68 -71.06 111.39 -69.56 109.34 -69.56 106.05 -73.78 109.61 -75.62 106.05"/>
    <polygon class="st0" points="-75.54 103.78 -75.14 102.65 -72.59 107.86 -74.06 108.01 -75.54 103.78"/>
    <polygon class="st0" points="-77.68 112.01 -75.95 112.92 -72.9 113.46 -71.96 121.36 -78.93 121.36 -77.68 112.01"/>
    <polyline class="st0" points="-29 126.91 -26.06 126.02 -26.06 131.6 -29 131.6 -29.02 126.6"/>
    <path class="st0" d="M-19.68,117.35c.46.24,8.84-2.43,8.84-2.43v3.01l-.99,2.65-1.84,1.65-3.56-.29-2.03-1.04-.42-3.55Z"/>
    <polygon class="st0" points="-20.91 108.01 -18.58 107.52 -16.97 108.9 -15.26 110.13 -15.26 115.43 -20.18 117.35 -20.02 120.13 -18.35 121.36 -16.99 122.96 -16.97 124.52 -20.91 124.52 -20.91 113.85 -20.91 108.01"/>
    <polygon class="st0" points="57.89 119.92 60.32 122.32 61.25 120.41 62.82 122.04 63.82 123.85 63.82 126.79 63.57 128.03 59.88 127.27 58.06 127.56 56.25 128.03 56.43 123.98 57.63 120.79 57.89 119.92"/>
    <polygon class="st0" points="56.25 128.03 59.08 127.4 60.61 127.59 62.51 127.72 63.82 129.48 64.19 131.41 64.19 133.91 63.25 134.35 62.51 131.79 62.5 128.79 58.47 128.43 57.09 129.88 56.25 132.04 55.5 134.85 54.1 134.6 54.1 132.1 54.69 129.79 56.25 128.03"/>
    <polygon class="st0" points="70.5 128.03 74.82 128.35 76.44 129.48 77.5 131.13 77 134.1 76 134.85 75.82 130.79 73.5 129.6 71.25 129.79 70.5 130.48 70.13 134.85 67.82 134.85 68.07 131.44 68.88 129.66 69.19 128.79 70.5 128.03"/>
    <polygon class="st0" points="75.13 119.23 71.25 119.23 70 121.54 69.57 122.66 67.82 121.79 66.75 123.1 70.56 125.66 70.54 127.69 74.82 128.35 76.51 126.57 77.97 122.68 76.47 120.12 75.13 119.23"/>
    <polygon class="st0" points="58.47 119.23 60.24 119.9 61.13 119.92 59.88 122.04 58.16 120.19 58.47 119.23"/>
    <polyline class="st0" points="56.25 121.54 57.16 122.04 56.71 123.98 54.75 127.27 53.85 126.66 56.25 121.79"/>
    <polygon class="st0" points="139.63 109.79 143.07 109.45 143.69 115.86 143 120.41 138.13 120.79 137.88 116.65 139.63 109.79"/>
    <path class="st0" d="M151.35,116.56l5.28-1.45.87,2.25s-.05,3.47-.5,3.42-2.58,1.15-2.58,1.15c0,0-1.1-.1-1.38-.39-.27-.29-1.48-1.94-1.7-2.19s0-2.79,0-2.79h.01Z"/>
    <path class="st0" d="M149.16,120.04h1.72l3.5,3,.44,2-1.78,1.23s-2.16.04-2.79,0c-.62-.04-2.34-1.1-2.34-1.1l1.25-5.12h0Z"/>
    <path class="st0" d="M205.68,107.47l3.07.32,3.19,5.44-1.06,3.17h-1.98l.48,3.26s-1.81.19-2,0-1.7-.81-1.7-.81v-11.38Z"/>
    <polygon class="st0" points="206.44 119.75 209.44 120.85 209.44 123.6 208.81 126.48 209.51 130.54 209.51 131.29 207.98 131.29 206.82 132.4 205.68 131.54 204.69 125.79 206.44 119.75"/>
    <path class="st0" d="M188.94,122.98"/>
    <polygon class="st0" points="193.25 130.91 194.82 130.48 195.44 132.1 197.19 133.29 200.13 133.29 200.63 135.1 197.75 135.1 195.19 135.1 194.69 132.79 192.63 132.4 193.25 130.91"/>
    <polygon class="st0" points="-170.31 130.98 -170.31 132.1 -167.81 132.58 -166.75 131.74 -166.17 132.23 -165.75 130.66 -166.51 130.3 -167.37 131.04 -170.31 130.98"/>
    <polygon class="st0" points="-165.75 108.11 -163.56 108.66 -163.56 111.36 -164.65 110.8 -165.75 109.48 -165.75 108.11"/>
    <polygon class="st0" points="-131.47 125.7 -130.71 126.1 -129.97 126.35 -128.12 128.13 -130.48 128.13 -130.71 130.35 -132.06 130.91 -133.78 130.91 -134.42 132.29 -136.09 132.29 -136.68 130.41 -135.7 128.6 -134.06 127.91 -133.12 128.13 -132.4 127.23 -131.47 125.7"/>
  </g>
  <g>
    <path class="st2" d="M99.71,19.73c-.37-.69-.06-1.15.79-.96,1.16.26,2.13,1.17,2.13,1.8,0,.59-.24,1.12-1.01,2.11-2.13,2.73-5.62,6.68-11.05,9.21-.92.44-1.35-.68-.65-1.14,5.45-3.56,8.79-7.96,9.65-9.46.42-.74.43-1.02.14-1.56h0ZM103.47,30.26c.59,0,.85-.16.85-.85,0-1.49-.17-8.37-.2-11.55-2.75.39-5.87,1.15-7.56,1.59-1.11.29-1.92.62-2.73.62-1.18,0-2.54-1.74-2.7-3.29-.06-.59.42-.8.83-.53.83.56,1.63.99,2.46.99,1.38,0,6.12-.71,9.69-1.23.01-1.51.04-3.17-.04-4.03-.05-.61-.26-.84-.94-1.13-.76-.33-1.11-.55-1.11-.85,0-.55.94-.98,1.77-.98,1.25,0,3.1.62,3.1,1.47,0,1.08-.57,1.91-.79,5.24.34-.05.66-.09.94-.13,1.47-.2,2.25-.65,2.78-.65,1.36,0,3.09.95,3.09,1.99,0,.74-.4,1.02-1.07,1.02-.75,0-2.78-.36-4.41-.36-.48,0-.96.02-1.41.05-.07,3.09.04,7.32.14,9.59.07,1.46.32,2.95.32,3.86,0,1.41-1.31,2.93-2.36,2.93-.88,0-.8-1.35-3.03-3.05-.5-.38-.3-1.09.39-.97.5.08,1.39.24,1.97.24Z"/>
    <path class="st2" d="M91.47,45.03c0-.59.53-.75.89-.49.8.58,1.26.89,2.25.89,2.42,0,10.4-1.18,11.96-1.46,1.33-.24,1.98-.71,2.73-.71,1.09,0,3.23,1.86,3.23,2.93,0,.77-1.57,1.43-2.46,2.02-1.05.7-3.52,2.41-5.82,3.85-.07.18-.15.37-.23.6-2.14,6.13-6.06,11.62-10.81,14.45h0c-.83.49-1.35-.51-.66-1.11,4.97-4.32,8.52-10.66,8.99-13.88.2-1.37-1.16-1.56-1.16-2.14,0-.52.71-.89,1.39-.89,1,0,2.16.71,2.62,1.27,1.61-1.37,3.06-2.86,3.66-3.64.5-.66.47-1.15-.21-1.15s-6.32,1.15-9.51,2c-1.88.5-3.28,1.09-3.99,1.09s-1.98-1.03-2.53-2.18c-.25-.52-.34-.93-.34-1.44h0Z"/>
    <path class="st2" d="M91.57,84.45c-.57-.47-.39-1.09.33-1.12,2.39-.1,5.45,1.35,5.47,3.75,0,.83-.47,1.44-1.17,1.41-.58-.02-.93-.45-1.46-1.1-.89-1.09-2.07-2.04-3.17-2.94h0ZM112.13,80.38c.49-.71,1.5,0,1.07.78-3.22,5.86-8.92,11.83-14.56,16.12-.97.74-1.9,1.48-2.76,1.48-1.3,0-3.22-1.63-3.59-3.52-.14-.7.48-1.08.9-.82.6.36,1.12.83,1.67,1.11.62.32,1.3.29,2.34-.35,4.71-2.92,11.17-9.34,14.93-14.8h0ZM96.08,78.68c-.58-.44-.42-1.09.29-1.13,2.3-.12,5.52,1.15,5.61,3.55.03.82-.45,1.45-1.16,1.45-.58,0-.95-.4-1.49-1.04-.93-1.09-2.13-1.98-3.25-2.83h0Z"/>
    <path class="st2" d="M94.79,111.83c.98.69,1.45.99,2.16.99,1.69,0,5.43-.76,6.75-1.12.83-.22,1.25-.86,1.83-.86,1.08,0,3.23,1.63,3.23,2.63,0,.75-1.22,1.36-1.8,2.15-.58.79-2.09,2.99-3.4,4.62,3.86,1.56,7.71,4.32,7.71,7.19,0,1.02-.52,1.7-1.33,1.74-.58.03-.96-.28-1.3-1.06-1.33-3.08-3.21-5.08-6.01-6.79-2.88,3.22-7.44,6.77-12.11,8.71-.94.39-1.32-.8-.51-1.25,5.37-2.94,12.22-9.19,14.8-14.8.2-.44.08-.65-.37-.58-1.04.15-4.31,1.22-5.66,1.67-.62.2-1.5.54-2.21.54-.98,0-2.4-1.51-2.7-3.06-.16-.85.33-1.12.89-.72Z"/>
    <path class="st2" d="M71.49,34.7c.65-1.09,1.51-2.37,1.98-2.37.62,0,2.78,2.07,2.78,2.9,0,.49-.53.79-1.63.79h-24.73c-.38,0-.65-.13-.65-.66,0-.49.27-.66.65-.66h8.38l.03-18.13h-8.26c-.39,0-.65-.13-.65-.66,0-.49.27-.66.65-.66h20.94c.65-1.09,1.48-2.37,1.95-2.37.62,0,2.78,2.07,2.78,2.9,0,.49-.53.79-1.63.79h-6.34c.03.07.03.1.03.16,0,.36-.3.62-.89.82v17.15h4.59ZM53.12,25.81c-.39-1.02-.89-2.04-1.39-2.93-.36-.69.03-1.42.83-.99,2.07.99,3.97,2.9,3.85,4.81-.03,1.02-.59,1.68-1.51,1.61-.89-.03-1.24-1.05-1.78-2.5ZM56,9.72c-.42-.69-.09-1.42.8-1.12,1.81.63,3.67,1.94,3.67,3.69,0,1.05-.59,1.74-1.54,1.74-.86,0-1.21-.92-1.72-2.04-.36-.76-.77-1.55-1.21-2.27ZM60.41,34.7h4.29l.03-18.13h-3.41c.03.07.03.1.03.16,0,.4-.3.66-.95.82v17.15ZM65.06,13.73c.86-1.58,1.69-3.39,2.16-5.33.06-.3.21-.53.5-.46,1.1.26,3.02,1.35,3.05,1.91.03.53-.41.72-1.33.72-.8,1.28-2.04,2.57-3.41,3.85-.65.59-1.33.1-.98-.69ZM74.74,22.98c.03.49-.5.66-1.42.59-.89,1.51-2.31,3.42-4.09,5.17-.68.66-1.39.13-.95-.72,1.18-2.11,2.16-4.48,2.84-6.85.06-.3.18-.53.53-.43,1.13.33,3.11,1.61,3.08,2.24Z"/>
    <path class="st2" d="M64.44,51.57c2.25,6.12,6.99,10.04,11.76,11.85.77.3.71.89,0,1.15-.71.3-.92.56-1.24,1.09-.39.63-.8.79-1.6.33-3.5-2.04-7.38-6.12-9.54-12.15v1.78c0,2.4.12,12.67.12,14.05,0,.76-.47,1.15-1.45,1.15-.59,0-.95-.36-.95-.99,0-1.48.27-10.99.27-13.63v-1.22c-2.28,4.58-6.66,9.81-12.05,12.44-.89.46-1.33-.43-.53-1.05,4.98-3.69,8.86-8.59,11.49-14.81h-10.69c-.38,0-.65-.13-.65-.66,0-.49.27-.66.65-.66h11.79c-.03-3.09-.12-6.58-.38-8.33-.06-.33.12-.49.41-.49,1.96,0,3.58.2,3.58,1.02,0,.56-.62.95-1.54,1.18-.03,1.19-.06,3.98-.06,6.62h7.17c.71-1.12,1.6-2.47,2.13-2.47.68,0,2.99,2.14,2.99,3,0,.49-.53.79-1.84.79h-9.83Z"/>
    <path class="st2" d="M53.09,88.26c.42-.63.95-1.32,1.27-1.32.59,0,2.28,1.45,2.28,2.17,0,.46-.53.86-1.1,1.09-.03,1.74-.06,5.63,0,7.57.83,1.51,1.92,2.44,4.98,2.76,3.64.43,10.78.23,15.34-.2.86-.1.83.86.09,1.05-.56.13-.65.4-.89.86-.24.53-.38.66-1.04.72-3.41.23-10.31.36-14.57-.43-2.64-.56-3.94-2.01-4.8-4.08-1.24,1.48-2.64,3.06-3.76,4.41-.38,1.02-.83,1.09-1.21.49-.33-.49-.77-1.45-.92-2.11-.15-.43-.12-.59.39-.86,1.33-.69,3.05-1.78,4.38-2.8.03-1.84.06-6.22.06-8.03h-3.82c-.39,0-.65-.13-.65-.66,0-.49.27-.66.65-.66h3.32ZM51.26,76.77c-.44-.69-.09-1.42.77-1.12,1.9.72,3.67,2.14,3.7,3.92,0,.99-.5,1.68-1.39,1.68-.83,0-1.16-.92-1.72-2.11-.41-.86-.92-1.68-1.36-2.37ZM58.87,76.94c-.38,0-.65-.13-.65-.66,0-.49.27-.66.65-.66h11.97c.5-.53,1.12-1.09,1.45-1.05.56.03,2.28,1.81,2.22,2.8-.03.69-1.01.56-1.69.59-1.1.72-2.81,1.91-4.38,3l.09.16c.24.49.24.95.03,1.32h3.41c.39-.53.83-1.05,1.01-1.05.71,0,2.46,1.74,2.46,2.37,0,.43-.56.76-1.18,1.02-.06,2.96,0,7.7-.06,11.65,0,1.97-1.24,2.8-2.4,2.8s-.44-1.22-2.01-1.81c-.59-.3-.5-1.09.06-1.09.21,0,1.1.13,1.54.13.65,0,.89-.3.95-1.09.03-.66.03-1.58.06-2.57h-4.92l.03,5.3c0,.72-.44.95-1.24.95-.47,0-.77-.3-.77-.89,0-.43.06-3.26.09-5.36h-4.62l.03,5.33c0,.72-.42,1.09-1.27,1.09-.5,0-.77-.33-.77-.92,0-2.86.27-12.8-.12-16.46-.03-.26.18-.46.44-.43.44.03,1.57.53,2.22,1.02h5.21c-.42-.43-.92-.95-1.51-1.48-.59-.49-1.24-1.02-1.87-1.45-.44-.26-.27-1.02.36-.95,1.78.23,3.05.82,3.88,1.45,1.04-.95,2.07-1.91,3.08-3.06h-11.76ZM61.03,83.75c-.03.63-.06,1.81-.09,3.06h4.62c0-1.12-.03-2.24-.12-3.06h-4.41ZM65.59,91.49v-3.36h-4.65v3.36h4.65ZM72.38,91.49v-3.36h-4.89l-.03,2.86v.49h4.92ZM68.41,83.75c-.03.33-.33.56-.89.66,0,.46-.03,1.38-.03,2.4h4.89v-3.06h-3.97Z"/>
    <path class="st2" d="M58.35,108.03c1.57.36,2.85,2.01,2.85,3.55,0,.69-.49,1.91-.91,3.23-.52,1.61-1,3.38-1,4.3,0,.7.24.7.45.05,1.04-3.19,2.44-6.22,4.77-6.21,2.44.02,5.08,2.67,5.08,8.3,0,7.89-3.93,13.07-11.64,14.76-1.3.29-1.56-.92-.34-1.38,6.75-2.55,9.54-6.39,9.54-13.41,0-3.96-1.14-6.47-2.94-6.47-2.11,0-3.8,5.33-3.8,8.47,0,1.53.42,2.66.42,3.45s-.25,1.24-.77,1.38c-.49.12-1.06-.16-1.39-.69-.62-1-1.07-2.97-1.1-4.92-.05-3.24.94-7.97,1.11-9.79.14-1.52-.14-2.31-.89-3.88-.25-.52.03-.89.58-.76h0Z"/>
    <path class="st2" d="M31.86,11.61c.65-1.09,1.54-2.37,2.01-2.37.59,0,2.87,2.07,2.87,2.9,0,.46-.53.79-1.72.79h-6.9c.92.36,1.87,1.02,1.9,1.45,0,.49-.42.66-1.33.69-.68,1.02-1.36,1.91-2.22,2.57-.09.07-.18.13-.27.16h6.16c.47-.66,1.04-1.35,1.24-1.35.74,0,2.72,1.88,2.72,2.5,0,.46-.65.86-1.33,1.12-.09,3.75-.03,9.87-.06,14.81,0,2.04-1.54,2.86-2.67,2.86s-.47-1.28-2.25-1.91c-.62-.23-.53-1.05.03-1.05.27,0,1.27.13,1.78.13.71,0,1.01-.3,1.07-1.15.09-1.71.06-4.94.06-7.31v-7.34h-7.2c.74.13,1.78.43,1.78.89,0,.36-.38.56-1.01.69-.03.23-.03,1.74-.03,1.94,0,.49.18.46,1.69.46,1.63,0,1.57-.2,1.84-.43.33-.36.47-.95.65-1.55.21-.69.95-.56.95.2-.06,1.51.41,1.51.41,2.11,0,1.02-1.27,1.48-3.88,1.48-2.93,0-3.46-.07-3.46-1.58,0-.72-.03-3.06-.06-3.69-.03-.3.03-.46.15-.53h-3.7c.89.13,1.75.49,1.75.95,0,.43-.36.66-1.12.76-.33,1.19-.83,2.24-1.57,3.03-.95,1.02-2.22,1.88-4.47,2.37-.65.23-1.1-.63-.3-1.09,1.63-.69,2.55-1.38,3.2-2.17.62-.72,1.04-1.84,1.24-3.29.03-.3.06-.46.18-.56h-4.5c-.21.13-.5.2-.8.26-.09,1.61-.09,6.81-.09,7.87l.03,9.51c0,.72-.42,1.09-1.33,1.09-.53,0-.8-.33-.8-.92,0-3.23.3-15.67-.12-19.68-.03-.23.18-.46.42-.46.41.03,1.6.49,2.37,1.02h10.51c-.21-.13-.27-.46-.09-.86.5-1.15,1.01-2.34,1.27-3.82,0-.07.03-.13.06-.2h-15.93c-.39,0-.65-.13-.65-.66,0-.49.27-.66.65-.66h11.43c0-1.09-.03-2.27-.09-3.09-.03-.33.15-.49.41-.49.5,0,3.2.1,3.2.95,0,.66-.62.92-1.54,1.12v1.51h7.46ZM18.54,15.79c-.21-.53-.5-1.12-.77-1.65-.36-.76.06-1.45.95-.99,1.39.69,2.75,1.65,2.61,3.03-.09.89-.68,1.48-1.57,1.35-.74-.07-.92-.92-1.21-1.74ZM26.15,26.82c.36-.56.86-1.19,1.12-1.19.5,0,2.01,1.28,2.01,1.91,0,.33-.3.59-.68.79-.03,1.35,0,4.18,0,4.97,0,1.02-.41,1.25-1.21,1.25-.68,0-.86-.59-.86-1.12v-.46h-5.66v1.05c0,.69-.44.99-1.27.99-.5,0-.77-.3-.77-.86,0-1.88.15-5.53-.12-8.13-.03-.26.18-.46.44-.4.56.07,1.84.63,2.43,1.19h4.56ZM26.56,31.66c0-1.15.03-2.57.03-3.52h-5.69c-.03.66-.06,2.11-.06,2.67v.86h5.72Z"/>
    <path class="st2" d="M32.28,45.64c.65-1.09,1.51-2.37,1.98-2.37.62,0,2.87,2.04,2.87,2.9,0,.46-.53.79-1.72.79H15.46c.06,2.63,0,5-.09,7.9-.15,4.9-.83,10.8-5.06,14.61-.68.69-1.42.03-.83-.82,2.58-3.79,3.67-7.57,3.73-14.61,0-2.83-.09-6.09-.27-9.08-.06-.53.15-.69.53-.63.5.1,1.81.72,2.49,1.32h6.93c.03-1.35,0-3-.09-4.02-.03-.33.15-.49.41-.49.5,0,3.5.1,3.5.99,0,.69-.65.95-1.57,1.18v2.34h7.14ZM31.1,52.72c.65-1.09,1.51-2.37,2.01-2.37.62,0,2.78,2.07,2.78,2.9,0,.49-.62.79-1.66.79h-8.47v5.43h4.41c.44-.63.98-1.28,1.3-1.28.62,0,2.43,1.48,2.43,2.21,0,.46-.5.76-1.04.99-.09,2.37,0,6.85,0,8.06,0,1.02-.47,1.25-1.33,1.25-.71,0-.95-.59-.95-1.12v-1.35h-10.69v1.55c0,.69-.47,1.02-1.36,1.02-.56,0-.83-.33-.83-.89,0-2.21.18-8.2-.12-11.19-.03-.26.18-.46.41-.43.5.03,1.87.59,2.61,1.19h3.11c.06-3.62,0-9.31-.24-11.35-.03-.3.15-.46.42-.46.5,0,3.44.1,3.44.95,0,.72-.65.99-1.57,1.22v2.9h5.33ZM30.62,66.9c0-2.11.03-4.84.03-6.12h-10.4c-.12.03-.21.03-.33.07-.03.86-.03,3.42-.03,4.02v2.04h10.72Z"/>
    <path class="st2" d="M15.04,102.7c0,.72-.42,1.05-1.3,1.05-.53,0-.8-.33-.8-.92,0-1.88.18-9.51.06-13.69-.83,1.05-1.75,2.07-2.78,2.96-.71.56-1.3-.07-.77-.82,2.64-3.39,4.56-6.94,5.63-10.47.12-.33.27-.46.56-.36.92.33,2.64,1.42,2.61,2.04-.03.53-.56.63-1.42.49-.5.99-1.15,2.21-1.98,3.52.68.33,1.36.79,1.36,1.19,0,.43-.5.63-1.1.72-.09,1.32-.09,5.53-.09,6.48l.03,7.8ZM10.04,81.54c2.22-2.17,4.15-4.74,5.21-7.27.15-.3.3-.46.59-.36.95.43,2.58,1.55,2.52,2.17-.06.53-.59.62-1.45.43-1.24,1.58-3.52,4.31-6.19,5.92-.77.49-1.3-.2-.68-.89ZM23.99,97.67c1.92-.4,3.58-.82,5-1.22,1.24-.33,1.51.66.36,1.22-2.49,1.09-5.89,2.14-10.45,3.09-.09.69-.33,1.25-.8,1.25-.56,0-1.1-1.22-1.36-2.9-.03-.3.09-.4.33-.43,1.78-.16,3.41-.4,4.89-.63.03-1.28.03-3.13.03-4.9h-4.12c-.38,0-.65-.13-.65-.66,0-.49.27-.66.65-.66h4.12c0-1.88-.03-3.52-.12-4.25-.03-.33.15-.49.42-.49.5,0,3.14.13,3.14.92,0,.63-.56.86-1.42,1.09v2.73h1.66c.56-.99,1.27-2.04,1.66-2.04.56,0,2.28,1.94,2.28,2.63.03.49-.56.72-1.27.72h-4.32v4.51ZM33.29,84.07c.59-1.02,1.36-2.14,1.78-2.14.59,0,2.46,1.97,2.46,2.73.03.46-.59.72-1.42.72h-.41c-.12.33-.68.53-1.04.59-.06,3.85-.03,10.27-.03,15.07,0,1.61-1.01,2.53-2.22,2.53-.92,0-.77-.92-2.7-1.71-.68-.3-.56-1.15.03-1.12.68.1,1.51.16,1.84.16.65,0,.98-.26,1.01-1.05.06-1.55.09-3.85.06-5.99,0-2.53-.06-6.94-.18-8.49h-2.58c.06.13.09.23.09.33,0,.46-.53.69-1.42.69h-11.17c-.39,0-.65-.13-.65-.66,0-.49.27-.66.65-.66h4.56c0-1.15.03-2.86.03-4.54h-3.52c-.39,0-.65-.13-.65-.66,0-.49.27-.66.65-.66h3.52c-.03-1.91-.06-3.62-.12-4.34-.03-.33.15-.49.42-.49.5,0,3.14.13,3.14.92,0,.63-.56.86-1.42,1.09v2.83h1.07c.56-.89,1.21-1.88,1.6-1.88.53,0,2.31,1.81,2.31,2.5,0,.46-.53.69-1.33.69h-3.64v4.54h1.92c.56-.92,1.24-1.94,1.63-1.94.33,0,1.07.63,1.66,1.25.09-.23.3-.33.59-.33h3.5ZM29.91,78.15c-.39,0-.65-.13-.65-.66,0-.49.27-.66.65-.66h3.2c.59-1.02,1.33-2.14,1.78-2.14.56,0,2.46,1.97,2.49,2.73,0,.46-.62.72-1.45.72h-6.01Z"/>
  </g>
</svg>